<?xml version="1.0" encoding="UTF-8" standalone="no"?>
<svg
   xmlns:dc="http://purl.org/dc/elements/1.1/"
   xmlns:cc="http://creativecommons.org/ns#"
   xmlns:rdf="http://www.w3.org/1999/02/22-rdf-syntax-ns#"
   xmlns:svg="http://www.w3.org/2000/svg"
   xmlns="http://www.w3.org/2000/svg"
   xmlns:sodipodi="http://sodipodi.sourceforge.net/DTD/sodipodi-0.dtd"
   xmlns:inkscape="http://www.inkscape.org/namespaces/inkscape"
   width="156.03558mm"
   height="35.454166mm"
   viewBox="0 0 156.03558 35.454166"
   version="1.1"
   id="svg874"
   inkscape:version="1.0.1 (3bc2e813f5, 2020-09-07)"
   sodipodi:docname="LogoH.svg"
   inkscape:export-filename="D:\Dropbox\Temp\LogoH.png"
   inkscape:export-xdpi="71.641792"
   inkscape:export-ydpi="71.641792">
  <defs
     id="defs868" />
  <sodipodi:namedview
     id="base"
     pagecolor="#ffffff"
     bordercolor="#666666"
     borderopacity="1.0"
     inkscape:pageopacity="0.0"
     inkscape:pageshadow="2"
     inkscape:zoom="0.35"
     inkscape:cx="1046.299"
     inkscape:cy="555.57143"
     inkscape:document-units="mm"
     inkscape:current-layer="layer1"
     inkscape:document-rotation="0"
     showgrid="false"
     fit-margin-top="0"
     fit-margin-left="0"
     fit-margin-right="0"
     fit-margin-bottom="0"
     inkscape:window-width="1267"
     inkscape:window-height="860"
     inkscape:window-x="171"
     inkscape:window-y="0"
     inkscape:window-maximized="0" />
  <metadata
     id="metadata871">
    <rdf:RDF>
      <cc:Work
         rdf:about="">
        <dc:format>image/svg+xml</dc:format>
        <dc:type
           rdf:resource="http://purl.org/dc/dcmitype/StillImage" />
        <dc:title />
      </cc:Work>
    </rdf:RDF>
  </metadata>
  <g
     inkscape:label="Layer 1"
     inkscape:groupmode="layer"
     id="layer1"
     transform="translate(170.99993,-1.1717263)">
    <g
       id="g1852"
       transform="matrix(0.38461344,0,0,0.38461344,-211.91031,-32.945295)"
       style="font-size:40px;line-height:1.25;font-family:HalisGR-Bold;-inkscape-font-specification:HalisGR-Bold;fill:#808000;stroke:#000000;stroke-width:0.68792;stroke-opacity:1">
      <g
         id="Logo-#svg-#icon"
         style="fill:none;fill-rule:evenodd;stroke:none;stroke-width:0.296442"
         transform="matrix(2.3206014,0,0,2.3206014,231.21795,333.52966)">
        <path
           d="m -46.050455,-81.220652 c -0.0136,0 -0.02737,0 -0.04113,-4.88e-4 -0.60842,-0.01219 -1.179756,-0.296097 -1.558542,-0.774146 l -4.318218,-5.450407 c -0.05441,-0.06878 -0.104454,-0.140813 -0.149636,-0.216097 -1.101053,-1.828943 -1.682915,-3.930407 -1.682915,-6.076748 0,-6.485692 5.255061,-11.762112 11.714332,-11.762112 4.10672,0 7.841781,2.10097 9.991417,5.619836 0.590121,0.966341 0.288583,2.229918 -0.673684,2.822439 -0.962592,0.592845 -2.220891,0.289593 -2.811013,-0.676423 -1.400485,-2.292522 -3.832874,-3.661302 -6.50672,-3.661302 -4.205182,0 -7.626397,3.435123 -7.626397,7.657562 0,1.356423 0.355952,2.68374 1.030446,3.846992 l 2.696356,3.403252 3.645182,-4.239025 c 0.38834,-0.451707 0.953036,-0.711219 1.547044,-0.711219 h 0.0028 c 0.59498,8.13e-4 1.160324,0.261951 1.548017,0.715284 l 3.565344,4.168293 h 4.474494 c 1.128745,0 2.043886,0.918862 2.043886,2.052195 0,1.133496 -0.915141,2.052358 -2.043886,2.052358 h -5.413442 c -0.595951,0 -1.162267,-0.261138 -1.550607,-0.715122 l -2.630654,-3.075447 -3.705425,4.309106 c -0.388664,0.452032 -0.953684,0.711219 -1.547045,0.711219"
           id="Fill-1"
           fill="#f5a623"
           style="stroke-width:0.31156" />
        <path
           d="m -21.614099,-81.220571 c -0.445182,0 -0.893441,-0.145366 -1.269149,-0.444553 -0.884373,-0.704552 -1.032389,-1.995447 -0.330851,-2.883414 l 4.221053,-5.341789 c 0.67498,-1.16374 1.031255,-2.491544 1.031255,-3.848292 0,-4.222277 -3.421214,-7.657401 -7.626559,-7.657401 -2.673846,0 -5.106234,1.36862 -6.506882,3.661303 -0.590122,0.966017 -1.848583,1.269106 -2.811012,0.676423 -0.962268,-0.592683 -1.263806,-1.85626 -0.673523,-2.822439 2.149636,-3.519027 5.884859,-5.619837 9.991417,-5.619837 6.459434,0 11.714332,5.27642 11.714332,11.761951 0,2.146341 -0.581862,4.247642 -1.682915,6.076748 -0.0447,0.07447 -0.09425,0.146016 -0.148016,0.214146 l -4.306559,5.450406 c -0.403562,0.510569 -1.000323,0.776748 -1.602591,0.776748"
           id="Fill-4"
           fill="#4e69be"
           style="stroke-width:0.31156" />
        <path
           d="m -33.815443,-65.777628 h -0.0032 c -0.624816,-9.75e-4 -1.214937,-0.288943 -1.601982,-0.781788 l -6.978299,-8.887805 c -0.698948,-0.890081 -0.546883,-2.180488 0.339595,-2.882277 0.886639,-0.701626 2.17166,-0.54878 2.870607,0.341139 l 5.378299,6.850081 10.596276,-13.410244 c 0.7017,-0.887967 1.987692,-1.036423 2.871741,-0.332195 0.884372,0.704553 1.032388,1.995447 0.33085,2.883415 l -12.202753,15.442927 c -0.387531,0.490731 -0.977328,0.776747 -1.601134,0.776747"
           id="Fill-7"
           fill="#78cbe8"
           style="stroke-width:0.31156" />
      </g>
    </g>
    <g
       id="g1884"
       transform="matrix(0.38461344,0,0,0.38461344,-205.58976,-32.905086)"
       style="font-size:40px;line-height:1.25;font-family:HalisGR-Bold;-inkscape-font-specification:HalisGR-Bold;fill:#808000;stroke:#000000;stroke-width:0.68792;stroke-opacity:1">
      <path
         style="color:#000000;font-style:normal;font-variant:normal;font-weight:normal;font-stretch:normal;font-size:medium;line-height:1.25;font-family:HalisGR-Bold;-inkscape-font-specification:HalisGR-Bold;font-variant-ligatures:normal;font-variant-position:normal;font-variant-caps:normal;font-variant-numeric:normal;font-variant-alternates:normal;font-variant-east-asian:normal;font-feature-settings:normal;font-variation-settings:normal;text-indent:0;text-align:start;text-decoration:none;text-decoration-line:none;text-decoration-style:solid;text-decoration-color:#000000;letter-spacing:normal;word-spacing:normal;text-transform:none;writing-mode:lr-tb;direction:ltr;text-orientation:mixed;dominant-baseline:auto;baseline-shift:baseline;text-anchor:start;white-space:normal;shape-padding:0;shape-margin:0;inline-size:0;clip-rule:nonzero;display:inline;overflow:visible;visibility:visible;isolation:auto;mix-blend-mode:normal;color-interpolation:sRGB;color-interpolation-filters:linearRGB;solid-color:#000000;solid-opacity:1;vector-effect:none;fill:#97aacb;fill-opacity:1;fill-rule:nonzero;stroke:none;stroke-width:0;stroke-linecap:round;stroke-linejoin:miter;stroke-miterlimit:4;stroke-dasharray:none;stroke-dashoffset:0;stroke-opacity:1;color-rendering:auto;image-rendering:auto;shape-rendering:auto;text-rendering:auto;enable-background:accumulate;stop-color:#000000"
         d="m 229.05226,113.19867 c 2.46367,0 4.68412,0.38899 6.66149,1.16699 2.00985,0.77797 3.63063,1.76668 4.86242,2.96606 1.23186,1.1994 2.25294,2.59332 3.06337,4.18169 0.84281,1.58842 1.42631,3.14438 1.75044,4.66795 0.32421,1.52356 0.48622,3.04709 0.48622,4.57065 0,1.55599 -0.16201,3.11198 -0.48622,4.66794 -0.32413,1.52354 -0.90763,3.07953 -1.75044,4.66794 -0.81043,1.58837 -1.83151,2.9823 -3.06337,4.18167 -1.23179,1.19937 -2.85257,2.18809 -4.86242,2.96608 -1.97737,0.74557 -4.19782,1.11836 -6.66149,1.11836 -2.49606,0 -4.749,-0.37279 -6.7588,-1.11836 -1.97737,-0.77799 -3.58194,-1.76671 -4.81382,-2.96608 -1.23175,-1.19937 -2.26908,-2.5933 -3.11196,-4.18167 -0.84275,-1.58841 -1.42626,-3.1444 -1.75044,-4.66794 -0.32417,-1.55596 -0.48622,-3.11195 -0.48622,-4.66794 0,-1.52356 0.16205,-3.04709 0.48622,-4.57065 0.32418,-1.52357 0.90769,-3.07953 1.75044,-4.66795 0.84288,-1.58837 1.88021,-2.98229 3.11196,-4.18169 1.23188,-1.19938 2.83645,-2.18809 4.81382,-2.96606 2.0098,-0.778 4.26274,-1.16699 6.7588,-1.16699 z m 0,28.78555 c 1.62077,0 3.04714,-0.30796 4.27895,-0.92384 1.26422,-0.6159 2.22048,-1.34527 2.86876,-2.1881 0.68082,-0.87522 1.23189,-1.86394 1.6533,-2.9661 0.42134,-1.13452 0.69694,-2.10705 0.82657,-2.91742 0.1297,-0.8104 0.19452,-1.55597 0.19452,-2.23675 0,-0.68072 -0.065,-1.42629 -0.19452,-2.23668 -0.12963,-0.81041 -0.40523,-1.76671 -0.82657,-2.86885 -0.42141,-1.10214 -0.97248,-2.07464 -1.6533,-2.91745 -0.64828,-0.87525 -1.60454,-1.60461 -2.86876,-2.18809 -1.23181,-0.6159 -2.65818,-0.92386 -4.27895,-0.92386 -1.6532,0 -3.11194,0.30796 -4.3762,0.92386 -1.26426,0.58348 -2.2367,1.31284 -2.91743,2.18809 -0.64835,0.84281 -1.19946,1.81531 -1.65324,2.91745 -0.42141,1.10214 -0.69696,2.05844 -0.82661,2.86885 -0.0974,0.81039 -0.14586,1.55596 -0.14586,2.23668 0,0.68078 0.0488,1.42635 0.14586,2.23675 0.12965,0.81037 0.4052,1.7829 0.82661,2.91742 0.45378,1.10216 1.00489,2.09088 1.65324,2.9661 0.68073,0.84283 1.65317,1.5722 2.91743,2.1881 1.26426,0.61588 2.723,0.92384 4.3762,0.92384 z"
         id="path937" />
      <g
         id="g1846">
        <path
           style="color:#000000;font-style:normal;font-variant:normal;font-weight:normal;font-stretch:normal;font-size:medium;line-height:1.25;font-family:HalisGR-Bold;-inkscape-font-specification:HalisGR-Bold;font-variant-ligatures:normal;font-variant-position:normal;font-variant-caps:normal;font-variant-numeric:normal;font-variant-alternates:normal;font-variant-east-asian:normal;font-feature-settings:normal;font-variation-settings:normal;text-indent:0;text-align:start;text-decoration:none;text-decoration-line:none;text-decoration-style:solid;text-decoration-color:#000000;letter-spacing:normal;word-spacing:normal;text-transform:none;writing-mode:lr-tb;direction:ltr;text-orientation:mixed;dominant-baseline:auto;baseline-shift:baseline;text-anchor:start;white-space:normal;shape-padding:0;shape-margin:0;inline-size:0;clip-rule:nonzero;display:inline;overflow:visible;visibility:visible;isolation:auto;mix-blend-mode:normal;color-interpolation:sRGB;color-interpolation-filters:linearRGB;solid-color:#000000;solid-opacity:1;vector-effect:none;fill:#000000;fill-opacity:1;fill-rule:nonzero;stroke:none;stroke-width:0;stroke-linecap:round;stroke-linejoin:miter;stroke-miterlimit:4;stroke-dasharray:none;stroke-dashoffset:0;stroke-opacity:1;color-rendering:auto;image-rendering:auto;shape-rendering:auto;text-rendering:auto;enable-background:accumulate;stop-color:#000000"
           d="m 229.05219,113.18029 c -2.49805,0 -4.75419,0.38913 -6.76652,1.16813 -1.97935,0.77872 -3.58568,1.76857 -4.81974,2.97014 -1.23328,1.20084 -2.27125,2.59571 -3.11497,4.18578 -0.84354,1.58975 -1.42759,3.14692 -1.75224,4.67246 -0.32436,1.52489 -0.48666,3.05021 -0.48666,4.57515 0,1.55732 0.16231,3.11529 0.48666,4.67251 0.32465,1.52553 0.9087,3.08271 1.75224,4.67246 0.84372,1.59011 1.88169,2.98495 3.11497,4.18577 1.23406,1.2016 2.84039,2.19147 4.81974,2.97021 2.01225,0.74648 4.26855,1.12059 6.76652,1.12059 2.46559,0 4.68935,-0.37409 6.66919,-1.12059 2.01172,-0.77873 3.63314,-1.76855 4.86718,-2.97021 1.2334,-1.20087 2.25622,-2.59555 3.06756,-4.18577 0.84346,-1.58975 1.42756,-3.14693 1.75217,-4.67246 0.32442,-1.55722 0.48669,-3.11519 0.48669,-4.67251 0,-1.52494 -0.16226,-3.05026 -0.48669,-4.57515 -0.32461,-1.52554 -0.90871,-3.08271 -1.75217,-4.67246 -0.81134,-1.59019 -1.83416,-2.98488 -3.06756,-4.18578 -1.23404,-1.20162 -2.85546,-2.19144 -4.86718,-2.97014 -1.97989,-0.77902 -4.20352,-1.16813 -6.66919,-1.16813 z m 0,0.0382 c 2.46161,0 4.68011,0.38876 6.65495,1.16575 2.00794,0.77725 3.6258,1.76349 4.85529,2.96067 1.23026,1.19787 2.25094,2.59204 3.06044,4.17862 0.84208,1.58705 1.42372,3.14145 1.74738,4.66303 0.32393,1.52226 0.48677,3.04343 0.48677,4.56561 0,1.55463 -0.16282,3.10831 -0.48677,4.66297 -0.32366,1.52157 -0.9053,3.07598 -1.74738,4.66302 -0.8095,1.58659 -1.83018,2.98076 -3.06044,4.17864 -1.22949,1.19716 -2.84735,2.18343 -4.85529,2.96068 -1.97489,0.74464 -4.19326,1.11826 -6.65495,1.11826 -2.49411,0 -4.74492,-0.3736 -6.7523,-1.11826 -1.9755,-0.77724 -3.5782,-1.76346 -4.80783,-2.96068 -1.23033,-1.19795 -2.26593,-2.59192 -3.10786,-4.17864 -0.84212,-1.58704 -1.42369,-3.14145 -1.74743,-4.66302 -0.32396,-1.55466 -0.48674,-3.10834 -0.48674,-4.66297 0,-1.52218 0.16279,-3.04335 0.48674,-4.56561 0.32374,-1.52158 0.90531,-3.07598 1.74743,-4.66303 0.84193,-1.58669 1.87753,-2.9807 3.10786,-4.17862 1.22963,-1.19724 2.83233,-2.18343 4.80783,-2.96067 2.0073,-0.77702 4.25829,-1.16575 6.7523,-1.16575 z m 0,6.37955 c -1.65561,0 -3.11794,0.30858 -4.3852,0.92595 -1.26635,0.58449 -2.23969,1.31559 -2.92266,2.19379 -0.64947,0.84434 -1.20283,1.81913 -1.65727,2.92269 -0.42169,1.10298 -0.69864,2.06051 -0.82856,2.87282 -0.0966,0.81105 -0.1448,1.55724 -0.1448,2.23888 0,0.68168 0.0478,1.42785 0.1448,2.23891 0.12991,0.81226 0.40689,1.78732 0.82856,2.92267 0.45442,1.10351 1.00554,2.09353 1.65487,2.97019 h 0.002 c 0.68292,0.84559 1.65653,1.57695 2.92265,2.19374 1.26724,0.61743 2.72957,0.92598 4.38521,0.92598 1.62327,0 3.053,-0.30848 4.28781,-0.92598 1.26625,-0.61682 2.22459,-1.34792 2.87525,-2.19374 0.68196,-0.87684 1.23511,-1.86638 1.65719,-2.97019 0.4217,-1.13535 0.69629,-2.11041 0.82625,-2.92267 0.12981,-0.81125 0.19465,-1.5569 0.19465,-2.23891 0,-0.68195 -0.0651,-1.42764 -0.19465,-2.23888 -0.12996,-0.81231 -0.40453,-1.76984 -0.82625,-2.87282 -0.4221,-1.10387 -0.9751,-2.07817 -1.65719,-2.92269 -0.65069,-0.87843 -1.60875,-1.60928 -2.87525,-2.19379 -1.23481,-0.61744 -2.66454,-0.92595 -4.28781,-0.92595 z m 0,0.0384 c 1.61835,0 3.04251,0.30919 4.27127,0.92357 1.26202,0.58247 2.21497,1.30986 2.86094,2.18193 0.67934,0.8411 1.22932,1.81272 1.65008,2.91315 0.4211,1.10126 0.69688,2.05483 0.82619,2.86331 0.12956,0.80958 0.19474,1.55466 0.19474,2.23415 0,0.67951 -0.0653,1.42462 -0.19474,2.23417 -0.12931,0.80858 -0.40507,1.77944 -0.82619,2.91317 -0.42078,1.10053 -0.97058,2.08703 -1.65008,2.96069 -0.64602,0.8398 -1.59867,1.56698 -2.86094,2.18194 -1.22876,0.61433 -2.65292,0.92356 -4.27127,0.92356 -1.65083,0 -3.10737,-0.30917 -4.36857,-0.92356 -1.26169,-0.6147 -2.23002,-1.34243 -2.90845,-2.18194 -0.64728,-0.87386 -1.19917,-1.85986 -1.65245,-2.96069 -0.42112,-1.13373 -0.69454,-2.10459 -0.82388,-2.91317 -0.097,-0.80977 -0.14718,-1.55432 -0.14718,-2.23417 0,-0.67982 0.0503,-1.42438 0.14718,-2.23415 0.12934,-0.80848 0.40279,-1.76205 0.82388,-2.86331 0.45325,-1.10075 1.00532,-2.07186 1.65245,-2.91315 0.67839,-0.87169 1.64704,-1.59976 2.90845,-2.18193 1.2612,-0.61444 2.71774,-0.92357 4.36857,-0.92357 z"
           id="path939" />
        <g
           id="g941"
           style="stroke-width:0.565905;stroke-linecap:round"
           transform="matrix(1.2156066,0,0,1.2156066,94.093759,17.142606)">
          <path
             style="color:#000000;font-style:normal;font-variant:normal;font-weight:normal;font-stretch:normal;font-size:medium;line-height:1.25;font-family:HalisGR-Bold;-inkscape-font-specification:HalisGR-Bold;font-variant-ligatures:normal;font-variant-position:normal;font-variant-caps:normal;font-variant-numeric:normal;font-variant-alternates:normal;font-variant-east-asian:normal;font-feature-settings:normal;font-variation-settings:normal;text-indent:0;text-align:start;text-decoration:none;text-decoration-line:none;text-decoration-style:solid;text-decoration-color:#000000;letter-spacing:normal;word-spacing:normal;text-transform:none;writing-mode:lr-tb;direction:ltr;text-orientation:mixed;dominant-baseline:auto;baseline-shift:baseline;text-anchor:start;white-space:normal;shape-padding:0;shape-margin:0;inline-size:0;clip-rule:nonzero;display:inline;overflow:visible;visibility:visible;isolation:auto;mix-blend-mode:normal;color-interpolation:sRGB;color-interpolation-filters:linearRGB;solid-color:#000000;solid-opacity:1;vector-effect:none;fill:#97aacb;fill-opacity:1;fill-rule:nonzero;stroke:none;stroke-width:0;stroke-linecap:round;stroke-linejoin:miter;stroke-miterlimit:4;stroke-dasharray:none;stroke-dashoffset:0;stroke-opacity:1;color-rendering:auto;image-rendering:auto;shape-rendering:auto;text-rendering:auto;enable-background:accumulate;stop-color:#000000;stop-opacity:1"
             d="m 139.4615,107.81904 c -1.41333,0 -2.61333,-0.22667 -3.6,-0.68 v 8.36 h -5.4 V 87.459039 h 3.72 l 0.44,1.4 c 0.56,-0.506667 1.36,-0.92 2.4,-1.24 1.04,-0.346667 1.98667,-0.52 2.84,-0.52 1.76,0 3.29333,0.333333 4.6,1 1.30667,0.666667 2.29333,1.533333 2.96,2.6 0.69333,1.066667 1.2,2.173333 1.52,3.32 0.32,1.12 0.48,2.266667 0.48,3.44 0,0.96 -0.0933,1.893334 -0.28,2.800001 -0.16,0.88 -0.46667,1.8 -0.92,2.76 -0.45333,0.93333 -1.04,1.74667 -1.76,2.44 -0.72,0.69333 -1.68,1.26667 -2.88,1.72 -1.2,0.42667 -2.57333,0.64 -4.12,0.64 z m 0,-15.840001 c -0.77333,0 -1.49333,0.16 -2.16,0.48 -0.66667,0.32 -1.14667,0.68 -1.44,1.08 v 8.480001 c 0.98667,0.64 2.08,0.96 3.28,0.96 1.01333,0 1.86667,-0.18667 2.56,-0.56 0.72,-0.37333 1.22667,-0.86667 1.52,-1.48 0.32,-0.64 0.53333,-1.226668 0.64,-1.760001 0.13333,-0.533333 0.2,-1.106667 0.2,-1.72 0,-0.533333 -0.0533,-1.053333 -0.16,-1.56 -0.10667,-0.533333 -0.30667,-1.12 -0.6,-1.76 -0.26667,-0.64 -0.73333,-1.16 -1.4,-1.56 -0.66667,-0.4 -1.48,-0.6 -2.44,-0.6 z"
             id="path943" />
          <path
             style="color:#000000;font-style:normal;font-variant:normal;font-weight:normal;font-stretch:normal;font-size:medium;line-height:1.25;font-family:HalisGR-Bold;-inkscape-font-specification:HalisGR-Bold;font-variant-ligatures:normal;font-variant-position:normal;font-variant-caps:normal;font-variant-numeric:normal;font-variant-alternates:normal;font-variant-east-asian:normal;font-feature-settings:normal;font-variation-settings:normal;text-indent:0;text-align:start;text-decoration:none;text-decoration-line:none;text-decoration-style:solid;text-decoration-color:#000000;letter-spacing:normal;word-spacing:normal;text-transform:none;writing-mode:lr-tb;direction:ltr;text-orientation:mixed;dominant-baseline:auto;baseline-shift:baseline;text-anchor:start;white-space:normal;shape-padding:0;shape-margin:0;inline-size:0;clip-rule:nonzero;display:inline;overflow:visible;visibility:visible;isolation:auto;mix-blend-mode:normal;color-interpolation:sRGB;color-interpolation-filters:linearRGB;solid-color:#000000;solid-opacity:1;vector-effect:none;fill:#000000;fill-opacity:1;fill-rule:nonzero;stroke:none;stroke-width:0;stroke-linecap:round;stroke-linejoin:miter;stroke-miterlimit:4;stroke-dasharray:none;stroke-dashoffset:0;stroke-opacity:1;color-rendering:auto;image-rendering:auto;shape-rendering:auto;text-rendering:auto;enable-background:accumulate;stop-color:#000000;stop-opacity:1"
             d="m 139.86133,87.083984 c -0.8555,0 -1.80446,0.17245 -2.84571,0.519532 -1.03213,0.317791 -1.82341,0.731467 -2.38476,1.234375 l -0.4375,-1.394532 h -3.74805 v 28.072261 h 5.43164 v -8.35742 c 0.98594,0.44915 2.17736,0.67774 3.58399,0.67774 1.54814,0 2.92295,-0.21519 4.125,-0.64258 h 0.002 c 1.20153,-0.45391 2.16282,-1.02745 2.88477,-1.72266 0.72137,-0.69465 1.30956,-1.51038 1.76367,-2.44531 0.45383,-0.96105 0.76158,-1.88206 0.92187,-2.76367 h -0.002 c 0.18689,-0.907761 0.28125,-1.841699 0.28125,-2.802736 0,-1.174134 -0.16042,-2.322534 -0.48047,-3.443359 v -0.002 c -0.32033,-1.147157 -0.82819,-2.255344 -1.52148,-3.322266 v -0.002 c -0.66836,-1.06881 -1.65854,-1.937991 -2.9668,-2.605469 -1.30926,-0.667988 -2.8454,-1 -4.60742,-1 z m 0,0.03125 c 1.75798,0 3.28967,0.332702 4.59375,0.998047 1.30457,0.665598 2.28815,1.529797 2.95312,2.59375 0.69252,1.065413 1.19804,2.171384 1.51758,3.316407 0.3196,1.11858 0.48047,2.263668 0.48047,3.435546 0,0.958963 -0.0948,1.8913 -0.28125,2.796876 -0.15971,0.87839 -0.46513,1.79691 -0.91797,2.75586 -0.45256,0.93174 -1.03723,1.74354 -1.75586,2.43555 -0.71805,0.69146 -1.67653,1.26404 -2.875,1.71679 -1.19795,0.42594 -2.57004,0.63867 -4.11523,0.63867 -1.41163,0 -2.60777,-0.22561 -3.5918,-0.67773 l -0.0234,-0.0117 v 8.36914 H 130.4766 V 87.474609 h 3.69336 l 0.44336,1.41211 0.0195,-0.01563 c 0.55759,-0.504485 1.35408,-0.916789 2.39258,-1.236328 h 0.002 c 1.03876,-0.346252 1.98282,-0.519532 2.83399,-0.519532 z m -0.40039,4.847657 c -0.77554,0 -1.49718,0.161377 -2.16602,0.482421 -0.66818,0.32073 -1.15172,0.680964 -1.44726,1.083985 l -0.002,0.0039 v 8.494133 l 0.008,0.006 c 0.98915,0.64161 2.08426,0.96094 3.2871,0.96094 1.0153,0 1.87217,-0.18567 2.56836,-0.56055 0.72239,-0.37457 1.23236,-0.87149 1.52735,-1.48828 0.32016,-0.64033 0.53349,-1.226989 0.64062,-1.761712 v -0.002 c 0.13339,-0.534225 0.20118,-1.10885 0.20117,-1.722657 0,-0.5344 -0.0533,-1.054725 -0.16015,-1.5625 -0.10698,-0.534892 -0.30784,-1.122809 -0.60156,-1.763672 -0.26804,-0.643277 -0.73717,-1.166906 -1.40625,-1.568359 -0.66958,-0.401743 -1.487,-0.601562 -2.44922,-0.601562 z m 0,0.03125 c 0.95778,0 1.76788,0.199399 2.43164,0.597656 0.66424,0.398547 1.12923,0.916011 1.39453,1.552734 v 0.002 c 0.29294,0.639138 0.49325,1.224085 0.59961,1.75586 0.10643,0.505559 0.1582,1.024374 0.1582,1.55664 0,0.612174 -0.0662,1.184864 -0.19922,1.716797 -0.1063,0.531523 -0.31915,1.116812 -0.63867,1.755862 -0.29168,0.60988 -0.79606,1.10056 -1.51367,1.47266 -0.69047,0.37179 -1.54137,0.55859 -2.55274,0.55859 -1.19501,0 -2.28087,-0.31898 -3.26367,-0.95508 v -8.460938 c 0.29125,-0.396258 0.76751,-0.755435 1.43164,-1.074219 0.66449,-0.318955 1.38122,-0.478515 2.15235,-0.478515 z"
             id="path945" />
        </g>
        <g
           id="g947"
           style="stroke-width:0.565905;stroke-linecap:round"
           transform="matrix(1.2156066,0,0,1.2156066,94.093759,17.142606)">
          <path
             style="color:#000000;font-style:normal;font-variant:normal;font-weight:normal;font-stretch:normal;font-size:medium;line-height:1.25;font-family:HalisGR-Bold;-inkscape-font-specification:HalisGR-Bold;font-variant-ligatures:normal;font-variant-position:normal;font-variant-caps:normal;font-variant-numeric:normal;font-variant-alternates:normal;font-variant-east-asian:normal;font-feature-settings:normal;font-variation-settings:normal;text-indent:0;text-align:start;text-decoration:none;text-decoration-line:none;text-decoration-style:solid;text-decoration-color:#000000;letter-spacing:normal;word-spacing:normal;text-transform:none;writing-mode:lr-tb;direction:ltr;text-orientation:mixed;dominant-baseline:auto;baseline-shift:baseline;text-anchor:start;white-space:normal;shape-padding:0;shape-margin:0;inline-size:0;clip-rule:nonzero;display:inline;overflow:visible;visibility:visible;isolation:auto;mix-blend-mode:normal;color-interpolation:sRGB;color-interpolation-filters:linearRGB;solid-color:#000000;solid-opacity:1;vector-effect:none;fill:#97aacb;fill-opacity:1;fill-rule:nonzero;stroke:none;stroke-width:0;stroke-linecap:round;stroke-linejoin:miter;stroke-miterlimit:4;stroke-dasharray:none;stroke-dashoffset:0;stroke-opacity:1;color-rendering:auto;image-rendering:auto;shape-rendering:auto;text-rendering:auto;enable-background:accumulate;stop-color:#000000;stop-opacity:1"
             d="m 154.30143,92.299039 h -2.08 v -4.8 h 2.08 l 0.4,-3.92 h 5.04 v 3.92 h 3.76 v 4.8 h -3.76 v 9.400001 c 0,0.85333 0.37333,1.28 1.12,1.28 0.29333,0 1.24,-0.2 2.84,-0.6 l 0.92,4.4 c -2.21333,0.64 -4.06667,0.96 -5.56,0.96 -1.01333,0 -1.86667,-0.2 -2.56,-0.6 -0.69333,-0.42667 -1.18667,-0.96 -1.48,-1.6 -0.29333,-0.66667 -0.49333,-1.24 -0.6,-1.72 -0.08,-0.50667 -0.12,-1.01333 -0.12,-1.52 z"
             id="path949" />
          <path
             style="color:#000000;font-style:normal;font-variant:normal;font-weight:normal;font-stretch:normal;font-size:medium;line-height:1.25;font-family:HalisGR-Bold;-inkscape-font-specification:HalisGR-Bold;font-variant-ligatures:normal;font-variant-position:normal;font-variant-caps:normal;font-variant-numeric:normal;font-variant-alternates:normal;font-variant-east-asian:normal;font-feature-settings:normal;font-variation-settings:normal;text-indent:0;text-align:start;text-decoration:none;text-decoration-line:none;text-decoration-style:solid;text-decoration-color:#000000;letter-spacing:normal;word-spacing:normal;text-transform:none;writing-mode:lr-tb;direction:ltr;text-orientation:mixed;dominant-baseline:auto;baseline-shift:baseline;text-anchor:start;white-space:normal;shape-padding:0;shape-margin:0;inline-size:0;clip-rule:nonzero;display:inline;overflow:visible;visibility:visible;isolation:auto;mix-blend-mode:normal;color-interpolation:sRGB;color-interpolation-filters:linearRGB;solid-color:#000000;solid-opacity:1;vector-effect:none;fill:#000000;fill-opacity:1;fill-rule:nonzero;stroke:none;stroke-width:0;stroke-linecap:round;stroke-linejoin:miter;stroke-miterlimit:4;stroke-dasharray:none;stroke-dashoffset:0;stroke-opacity:1;color-rendering:auto;image-rendering:auto;shape-rendering:auto;text-rendering:auto;enable-background:accumulate;stop-color:#000000;stop-opacity:1"
             d="m 154.6875,83.5625 -0.40039,3.919922 h -2.08203 v 4.832031 h 2.08008 v 9.984377 c 0,0.50751 0.041,1.01596 0.12109,1.52344 0.107,0.4815 0.30599,1.05534 0.59961,1.72265 h 0.002 c 0.29476,0.64312 0.78886,1.17941 1.48438,1.60742 h 0.002 c 0.69626,0.40169 1.55097,0.60352 2.56641,0.60352 1.49562,0 3.35019,-0.32067 5.56445,-0.96094 l 0.0156,-0.004 -0.92773,-4.43164 -0.0156,0.004 c -0.79989,0.19997 -1.4352,0.34929 -1.90821,0.44922 -0.473,0.0999 -0.7847,0.15039 -0.92773,0.15039 -0.37029,0 -0.64494,-0.1051 -0.82813,-0.31445 -0.18318,-0.20936 -0.27539,-0.52489 -0.27539,-0.94922 v -9.384767 h 3.75977 v -4.832031 h -3.75977 V 83.5625 Z m 0.0293,0.0332 h 5.00781 v 3.919922 h 3.76172 V 92.2832 h -3.76172 v 9.41602 c 0,0.429 0.095,0.75339 0.28516,0.9707 0.19014,0.21731 0.47518,0.32422 0.85156,0.32422 0.1503,0 0.45993,-0.0503 0.93359,-0.15039 0.46977,-0.0992 1.10365,-0.24774 1.89453,-0.44531 l 0.91211,4.36718 c -2.20423,0.63617 -4.05412,0.95704 -5.54101,0.95704 -1.01123,0 -1.86037,-0.19935 -2.55078,-0.59766 -0.69115,-0.42532 -1.18271,-0.95491 -1.47461,-1.5918 -0.29305,-0.66602 -0.49133,-1.23829 -0.59766,-1.71679 -0.0799,-0.50586 -0.11914,-1.01176 -0.11914,-1.51758 V 92.283203 h -0.0176 -2.0625 v -4.767578 h 2.07813 z"
             id="path951" />
        </g>
        <g
           id="g953"
           style="stroke-width:0.565905;stroke-linecap:round"
           transform="matrix(1.2156066,0,0,1.2156066,94.093759,17.142606)">
          <path
             style="color:#000000;font-style:normal;font-variant:normal;font-weight:normal;font-stretch:normal;font-size:medium;line-height:1.25;font-family:HalisGR-Bold;-inkscape-font-specification:HalisGR-Bold;font-variant-ligatures:normal;font-variant-position:normal;font-variant-caps:normal;font-variant-numeric:normal;font-variant-alternates:normal;font-variant-east-asian:normal;font-feature-settings:normal;font-variation-settings:normal;text-indent:0;text-align:start;text-decoration:none;text-decoration-line:none;text-decoration-style:solid;text-decoration-color:#000000;letter-spacing:normal;word-spacing:normal;text-transform:none;writing-mode:lr-tb;direction:ltr;text-orientation:mixed;dominant-baseline:auto;baseline-shift:baseline;text-anchor:start;white-space:normal;shape-padding:0;shape-margin:0;inline-size:0;clip-rule:nonzero;display:inline;overflow:visible;visibility:visible;isolation:auto;mix-blend-mode:normal;color-interpolation:sRGB;color-interpolation-filters:linearRGB;solid-color:#000000;solid-opacity:1;vector-effect:none;fill:#97aacb;fill-opacity:1;fill-rule:nonzero;stroke:none;stroke-width:0;stroke-linecap:round;stroke-linejoin:miter;stroke-miterlimit:4;stroke-dasharray:none;stroke-dashoffset:0;stroke-opacity:1;color-rendering:auto;image-rendering:auto;shape-rendering:auto;text-rendering:auto;enable-background:accumulate;stop-color:#000000;stop-opacity:1"
             d="m 173.98143,87.499039 v 20.000001 h -5.44 V 87.499039 Z m -5.76,-6.52 c 0,-0.853333 0.29333,-1.573333 0.88,-2.16 0.58667,-0.613333 1.32,-0.92 2.2,-0.92 0.85333,0 1.57333,0.306667 2.16,0.92 0.58667,0.586667 0.88,1.306667 0.88,2.16 0,0.88 -0.29333,1.613333 -0.88,2.2 -0.58667,0.56 -1.30667,0.84 -2.16,0.84 -0.88,0 -1.61333,-0.28 -2.2,-0.84 -0.58667,-0.586667 -0.88,-1.32 -0.88,-2.2 z"
             id="path955" />
          <path
             style="color:#000000;font-style:normal;font-variant:normal;font-weight:normal;font-stretch:normal;font-size:medium;line-height:1.25;font-family:HalisGR-Bold;-inkscape-font-specification:HalisGR-Bold;font-variant-ligatures:normal;font-variant-position:normal;font-variant-caps:normal;font-variant-numeric:normal;font-variant-alternates:normal;font-variant-east-asian:normal;font-feature-settings:normal;font-variation-settings:normal;text-indent:0;text-align:start;text-decoration:none;text-decoration-line:none;text-decoration-style:solid;text-decoration-color:#000000;letter-spacing:normal;word-spacing:normal;text-transform:none;writing-mode:lr-tb;direction:ltr;text-orientation:mixed;dominant-baseline:auto;baseline-shift:baseline;text-anchor:start;white-space:normal;shape-padding:0;shape-margin:0;inline-size:0;clip-rule:nonzero;display:inline;overflow:visible;visibility:visible;isolation:auto;mix-blend-mode:normal;color-interpolation:sRGB;color-interpolation-filters:linearRGB;solid-color:#000000;solid-opacity:1;vector-effect:none;fill:#000000;fill-opacity:1;fill-rule:nonzero;stroke:none;stroke-width:0;stroke-linecap:round;stroke-linejoin:miter;stroke-miterlimit:4;stroke-dasharray:none;stroke-dashoffset:0;stroke-opacity:1;color-rendering:auto;image-rendering:auto;shape-rendering:auto;text-rendering:auto;enable-background:accumulate;stop-color:#000000;stop-opacity:1"
             d="m 171.30078,77.882812 c -0.88372,0 -1.62151,0.309561 -2.21094,0.925782 -0.58941,0.589409 -0.88476,1.312922 -0.88476,2.169922 0,0.883555 0.29527,1.621442 0.88476,2.210937 v 0.002 c 0.58956,0.562759 1.32755,0.84375 2.21094,0.84375 0.85683,0 1.58241,-0.281074 2.17188,-0.84375 v -0.002 c 0.58949,-0.589495 0.88476,-1.327382 0.88476,-2.210937 0,-0.857 -0.29535,-1.580513 -0.88476,-2.169922 -0.58935,-0.616134 -1.31471,-0.925782 -2.17188,-0.925782 z m 0,0.03125 c 0.8495,0 1.56445,0.305483 2.14844,0.916016 0.58392,0.583924 0.87695,1.298771 0.87695,2.148438 0,0.876444 -0.29311,1.605615 -0.87695,2.189453 -0.58361,0.556445 -1.29928,0.835937 -2.14844,0.835937 -0.8766,0 -1.60372,-0.278696 -2.1875,-0.835937 -0.58384,-0.583838 -0.875,-1.313009 -0.875,-2.189453 0,-0.849667 0.29108,-1.564514 0.875,-2.148438 0.58391,-0.610445 1.31122,-0.916015 2.1875,-0.916016 z m -2.77539,9.56836 v 20.033198 h 5.47266 V 87.482422 h -0.0176 z m 0.0312,0.0332 h 5.4082 v 19.966798 h -5.4082 z"
             id="path957" />
        </g>
        <g
           id="g959"
           style="stroke-width:0.565905;stroke-linecap:round"
           transform="matrix(1.2156066,0,0,1.2156066,94.093759,17.142606)">
          <path
             style="color:#000000;font-style:normal;font-variant:normal;font-weight:normal;font-stretch:normal;font-size:medium;line-height:1.25;font-family:HalisGR-Bold;-inkscape-font-specification:HalisGR-Bold;font-variant-ligatures:normal;font-variant-position:normal;font-variant-caps:normal;font-variant-numeric:normal;font-variant-alternates:normal;font-variant-east-asian:normal;font-feature-settings:normal;font-variation-settings:normal;text-indent:0;text-align:start;text-decoration:none;text-decoration-line:none;text-decoration-style:solid;text-decoration-color:#000000;letter-spacing:normal;word-spacing:normal;text-transform:none;writing-mode:lr-tb;direction:ltr;text-orientation:mixed;dominant-baseline:auto;baseline-shift:baseline;text-anchor:start;white-space:normal;shape-padding:0;shape-margin:0;inline-size:0;clip-rule:nonzero;display:inline;overflow:visible;visibility:visible;isolation:auto;mix-blend-mode:normal;color-interpolation:sRGB;color-interpolation-filters:linearRGB;solid-color:#000000;solid-opacity:1;vector-effect:none;fill:#97aacb;fill-opacity:1;fill-rule:nonzero;stroke:none;stroke-width:0;stroke-linecap:round;stroke-linejoin:miter;stroke-miterlimit:4;stroke-dasharray:none;stroke-dashoffset:0;stroke-opacity:1;color-rendering:auto;image-rendering:auto;shape-rendering:auto;text-rendering:auto;enable-background:accumulate;stop-color:#000000;stop-opacity:1"
             d="m 186.14142,93.739039 v 13.760001 h -5.4 V 87.499039 h 3.68 l 0.48,1.52 c 1.44,-1.226667 3.12,-1.84 5.04,-1.84 2.66667,0 4.62667,0.666667 5.88,2 1.70667,-1.333333 3.57333,-2 5.6,-2 1.06667,0 2.01333,0.106667 2.84,0.32 0.82667,0.213333 1.50667,0.493333 2.04,0.84 0.56,0.32 1.04,0.76 1.44,1.32 0.4,0.56 0.69333,1.093333 0.88,1.6 0.21333,0.506667 0.37333,1.146667 0.48,1.92 0.10667,0.746667 0.17333,1.4 0.2,1.96 0.0267,0.533333 0.04,1.213333 0.04,2.04 v 10.320001 h -5.52 V 96.659039 c 0,-0.693333 -0.0133,-1.24 -0.04,-1.64 -0.0267,-0.426667 -0.12,-0.906667 -0.28,-1.44 -0.13333,-0.533333 -0.4,-0.933333 -0.8,-1.2 -0.37333,-0.266667 -0.86667,-0.4 -1.48,-0.4 -1.36,0 -2.49333,0.573333 -3.4,1.72 v 13.800001 h -5.48 V 96.659039 c 0,-0.693333 -0.0133,-1.24 -0.04,-1.64 -0.0267,-0.426667 -0.12,-0.906667 -0.28,-1.44 -0.13333,-0.533333 -0.4,-0.933333 -0.8,-1.2 -0.37333,-0.266667 -0.86667,-0.4 -1.48,-0.4 -1.54667,0 -2.74667,0.586667 -3.6,1.76 z"
             id="path961" />
          <path
             style="color:#000000;font-style:normal;font-variant:normal;font-weight:normal;font-stretch:normal;font-size:medium;line-height:1.25;font-family:HalisGR-Bold;-inkscape-font-specification:HalisGR-Bold;font-variant-ligatures:normal;font-variant-position:normal;font-variant-caps:normal;font-variant-numeric:normal;font-variant-alternates:normal;font-variant-east-asian:normal;font-feature-settings:normal;font-variation-settings:normal;text-indent:0;text-align:start;text-decoration:none;text-decoration-line:none;text-decoration-style:solid;text-decoration-color:#000000;letter-spacing:normal;word-spacing:normal;text-transform:none;writing-mode:lr-tb;direction:ltr;text-orientation:mixed;dominant-baseline:auto;baseline-shift:baseline;text-anchor:start;white-space:normal;shape-padding:0;shape-margin:0;inline-size:0;clip-rule:nonzero;display:inline;overflow:visible;visibility:visible;isolation:auto;mix-blend-mode:normal;color-interpolation:sRGB;color-interpolation-filters:linearRGB;solid-color:#000000;solid-opacity:1;vector-effect:none;fill:#000000;fill-opacity:1;fill-rule:nonzero;stroke:none;stroke-width:0;stroke-linecap:round;stroke-linejoin:miter;stroke-miterlimit:4;stroke-dasharray:none;stroke-dashoffset:0;stroke-opacity:1;color-rendering:auto;image-rendering:auto;shape-rendering:auto;text-rendering:auto;enable-background:accumulate;stop-color:#000000;stop-opacity:1"
             d="m 189.94141,87.162109 c -1.91537,0 -3.5926,0.615297 -5.03125,1.833985 l -0.47657,-1.513672 h -3.70898 v 20.033198 h 5.43359 V 93.744141 c 0.85041,-1.166424 2.04347,-1.75 3.58399,-1.75 0.61101,0 1.10074,0.134179 1.4707,0.398437 0.39659,0.264391 0.6604,0.659164 0.79297,1.189453 v 0.002 c 0.15973,0.532443 0.25273,1.010455 0.2793,1.435547 0.0266,0.399388 0.041,0.945544 0.041,1.638672 v 10.85742 h 5.51172 V 93.705078 c 0.90362,-1.140456 2.02918,-1.710937 3.38281,-1.710937 0.61102,0 1.10075,0.134179 1.47071,0.398437 h 0.002 c 0.39659,0.264391 0.6604,0.659164 0.79297,1.189453 v 0.002 c 0.15973,0.532443 0.25273,1.010455 0.27929,1.435547 0.0266,0.399388 0.0391,0.945544 0.0391,1.638672 v 10.85742 h 5.55273 V 97.179688 c 0,-0.826839 -0.0124,-1.507271 -0.0391,-2.041016 -0.0267,-0.560675 -0.0945,-1.213901 -0.20117,-1.960938 -0.1067,-0.773555 -0.26669,-1.415589 -0.48047,-1.923828 v -0.002 c -0.18731,-0.507925 -0.48255,-1.041187 -0.88281,-1.601562 -0.40065,-0.560911 -0.88231,-1.003152 -1.44336,-1.324219 l -0.002,-0.002 c -0.53496,-0.347352 -1.21603,-0.626441 -2.04297,-0.839844 -0.82827,-0.213749 -1.77601,-0.322266 -2.84374,-0.322266 -2.02642,0 -3.89309,0.667758 -5.59961,1.998047 -1.2576,-1.33085 -3.21813,-1.998047 -5.88086,-1.998047 z m 0,0.0332 c 2.664,0 4.61968,0.664934 5.86914,1.994141 l 0.01,0.01172 0.0117,-0.0098 c 1.70425,-1.331441 3.56669,-1.996094 5.58985,-1.996094 1.06559,0 2.01088,0.105443 2.83593,0.31836 0.82544,0.213017 1.50374,0.492465 2.03516,0.83789 v 0.002 c 0.55793,0.318819 1.03676,0.756154 1.43555,1.314453 0.39935,0.5591 0.6909,1.090721 0.87695,1.595703 l 0.002,0.002 c 0.21258,0.504862 0.37198,1.143644 0.47852,1.916016 0.10661,0.746297 0.17258,1.399659 0.19922,1.958984 0.0266,0.532922 0.041,1.212568 0.041,2.039063 v 10.302735 h -5.48828 V 96.658203 c 0,-0.693538 -0.0143,-1.240013 -0.041,-1.640625 -0.0268,-0.428241 -0.11903,-0.909135 -0.2793,-1.443359 -0.1341,-0.536377 -0.40323,-0.940042 -0.80664,-1.208985 -0.37671,-0.269075 -0.87458,-0.402343 -1.49024,-0.402343 -1.36449,0 -2.50303,0.576842 -3.41211,1.726562 l -0.004,0.0039 v 13.789057 h -5.44727 V 96.658203 c 0,-0.693538 -0.0123,-1.240013 -0.0391,-1.640625 -0.0268,-0.428241 -0.12098,-0.909135 -0.28125,-1.443359 -0.13409,-0.536377 -0.40323,-0.940042 -0.80664,-1.208985 -0.37671,-0.269075 -0.87263,-0.402343 -1.48828,-0.402343 -1.55072,0 -2.75725,0.590526 -3.61328,1.767578 l -0.004,0.0039 v 0.0039 13.744141 h -5.36719 V 87.515625 h 3.65235 l 0.48242,1.53125 0.0195,-0.01563 c 1.43733,-1.22439 3.1127,-1.835938 5.0293,-1.835938 z"
             id="path963" />
        </g>
        <g
           id="g965"
           style="stroke-width:0.565905;stroke-linecap:round"
           transform="matrix(1.2156066,0,0,1.2156066,94.093759,17.142606)">
          <path
             style="color:#000000;font-style:normal;font-variant:normal;font-weight:normal;font-stretch:normal;font-size:medium;line-height:1.25;font-family:HalisGR-Bold;-inkscape-font-specification:HalisGR-Bold;font-variant-ligatures:normal;font-variant-position:normal;font-variant-caps:normal;font-variant-numeric:normal;font-variant-alternates:normal;font-variant-east-asian:normal;font-feature-settings:normal;font-variation-settings:normal;text-indent:0;text-align:start;text-decoration:none;text-decoration-line:none;text-decoration-style:solid;text-decoration-color:#000000;letter-spacing:normal;word-spacing:normal;text-transform:none;writing-mode:lr-tb;direction:ltr;text-orientation:mixed;dominant-baseline:auto;baseline-shift:baseline;text-anchor:start;white-space:normal;shape-padding:0;shape-margin:0;inline-size:0;clip-rule:nonzero;display:inline;overflow:visible;visibility:visible;isolation:auto;mix-blend-mode:normal;color-interpolation:sRGB;color-interpolation-filters:linearRGB;solid-color:#000000;solid-opacity:1;vector-effect:none;fill:#97aacb;fill-opacity:1;fill-rule:nonzero;stroke:none;stroke-width:0;stroke-linecap:round;stroke-linejoin:miter;stroke-miterlimit:4;stroke-dasharray:none;stroke-dashoffset:0;stroke-opacity:1;color-rendering:auto;image-rendering:auto;shape-rendering:auto;text-rendering:auto;enable-background:accumulate;stop-color:#000000;stop-opacity:1"
             d="m 220.7014,87.499039 v 20.000001 h -5.44 V 87.499039 Z m -5.76,-6.52 c 0,-0.853333 0.29333,-1.573333 0.88,-2.16 0.58667,-0.613333 1.32,-0.92 2.2,-0.92 0.85333,0 1.57333,0.306667 2.16,0.92 0.58667,0.586667 0.88,1.306667 0.88,2.16 0,0.88 -0.29333,1.613333 -0.88,2.2 -0.58667,0.56 -1.30667,0.84 -2.16,0.84 -0.88,0 -1.61333,-0.28 -2.2,-0.84 -0.58667,-0.586667 -0.88,-1.32 -0.88,-2.2 z"
             id="path967" />
          <path
             style="color:#000000;font-style:normal;font-variant:normal;font-weight:normal;font-stretch:normal;font-size:medium;line-height:1.25;font-family:HalisGR-Bold;-inkscape-font-specification:HalisGR-Bold;font-variant-ligatures:normal;font-variant-position:normal;font-variant-caps:normal;font-variant-numeric:normal;font-variant-alternates:normal;font-variant-east-asian:normal;font-feature-settings:normal;font-variation-settings:normal;text-indent:0;text-align:start;text-decoration:none;text-decoration-line:none;text-decoration-style:solid;text-decoration-color:#000000;letter-spacing:normal;word-spacing:normal;text-transform:none;writing-mode:lr-tb;direction:ltr;text-orientation:mixed;dominant-baseline:auto;baseline-shift:baseline;text-anchor:start;white-space:normal;shape-padding:0;shape-margin:0;inline-size:0;clip-rule:nonzero;display:inline;overflow:visible;visibility:visible;isolation:auto;mix-blend-mode:normal;color-interpolation:sRGB;color-interpolation-filters:linearRGB;solid-color:#000000;solid-opacity:1;vector-effect:none;fill:#000000;fill-opacity:1;fill-rule:nonzero;stroke:none;stroke-width:0;stroke-linecap:round;stroke-linejoin:miter;stroke-miterlimit:4;stroke-dasharray:none;stroke-dashoffset:0;stroke-opacity:1;color-rendering:auto;image-rendering:auto;shape-rendering:auto;text-rendering:auto;enable-background:accumulate;stop-color:#000000;stop-opacity:1"
             d="m 218.02148,77.882812 c -0.88371,0 -1.6215,0.309561 -2.21093,0.925782 -0.58941,0.589409 -0.88477,1.312922 -0.88477,2.169922 0,0.883555 0.29527,1.621442 0.88477,2.210937 v 0.002 c 0.58955,0.562759 1.32754,0.84375 2.21093,0.84375 0.85684,0 1.58241,-0.281074 2.17188,-0.84375 v -0.002 c 0.58949,-0.589495 0.88477,-1.327382 0.88476,-2.210937 10e-6,-0.857 -0.29535,-1.580513 -0.88476,-2.169922 -0.58935,-0.616134 -1.31471,-0.925782 -2.17188,-0.925782 z m 0,0.03125 c 0.8495,0 1.56445,0.305483 2.14844,0.916016 0.58393,0.583924 0.875,1.298771 0.875,2.148438 0,0.876444 -0.29116,1.605615 -0.875,2.189453 -0.58386,0.557324 -1.2986,0.835937 -2.14844,0.835937 -0.8766,0 -1.60567,-0.278696 -2.18945,-0.835937 -0.58384,-0.583838 -0.875,-1.313009 -0.875,-2.189453 0,-0.849667 0.29108,-1.564514 0.875,-2.148438 0.58391,-0.610445 1.31317,-0.916015 2.18945,-0.916016 z m -2.77539,9.56836 v 20.033198 h 5.47071 V 87.482422 h -0.0156 z m 0.0312,0.0332 h 5.40821 v 19.966798 h -5.40821 z"
             id="path969" />
        </g>
        <g
           id="g971"
           style="stroke-width:0.565905;stroke-linecap:round"
           transform="matrix(1.2156066,0,0,1.2156066,94.093759,17.142606)">
          <path
             style="color:#000000;font-style:normal;font-variant:normal;font-weight:normal;font-stretch:normal;font-size:medium;line-height:1.25;font-family:HalisGR-Bold;-inkscape-font-specification:HalisGR-Bold;font-variant-ligatures:normal;font-variant-position:normal;font-variant-caps:normal;font-variant-numeric:normal;font-variant-alternates:normal;font-variant-east-asian:normal;font-feature-settings:normal;font-variation-settings:normal;text-indent:0;text-align:start;text-decoration:none;text-decoration-line:none;text-decoration-style:solid;text-decoration-color:#000000;letter-spacing:normal;word-spacing:normal;text-transform:none;writing-mode:lr-tb;direction:ltr;text-orientation:mixed;dominant-baseline:auto;baseline-shift:baseline;text-anchor:start;white-space:normal;shape-padding:0;shape-margin:0;inline-size:0;clip-rule:nonzero;display:inline;overflow:visible;visibility:visible;isolation:auto;mix-blend-mode:normal;color-interpolation:sRGB;color-interpolation-filters:linearRGB;solid-color:#000000;solid-opacity:1;vector-effect:none;fill:#97aacb;fill-opacity:1;fill-rule:nonzero;stroke:none;stroke-width:0;stroke-linecap:round;stroke-linejoin:miter;stroke-miterlimit:4;stroke-dasharray:none;stroke-dashoffset:0;stroke-opacity:1;color-rendering:auto;image-rendering:auto;shape-rendering:auto;text-rendering:auto;enable-background:accumulate;stop-color:#000000;stop-opacity:1"
             d="m 232.54139,93.219039 c 0,0.506667 0.98667,1.066667 2.96,1.68 0.82667,0.266667 1.45333,0.48 1.88,0.64 0.45333,0.16 1.04,0.44 1.76,0.84 0.74667,0.4 1.30667,0.813333 1.68,1.24 0.4,0.426667 0.74667,1 1.04,1.72 0.32,0.693331 0.48,1.480001 0.48,2.360001 0,1.81333 -0.70667,3.29333 -2.12,4.44 -1.41333,1.12 -3.21333,1.68 -5.4,1.68 -2.66667,0 -5.38667,-0.81333 -8.16,-2.44 l 2.16,-4.24 c 2.4,1.22667 4.33333,1.84 5.8,1.84 0.61333,0 1.13333,-0.10667 1.56,-0.32 0.42667,-0.24 0.64,-0.54667 0.64,-0.92 0,-0.53333 -0.28,-0.94667 -0.84,-1.24 -0.53333,-0.29333 -1.36,-0.6 -2.48,-0.920001 -0.93333,-0.293333 -1.68,-0.546667 -2.24,-0.76 -0.53333,-0.24 -1.16,-0.586667 -1.88,-1.04 -0.69333,-0.48 -1.21333,-1.08 -1.56,-1.8 -0.34667,-0.746667 -0.52,-1.613333 -0.52,-2.6 0,-1.92 0.61333,-3.426667 1.84,-4.52 1.25333,-1.12 2.90667,-1.68 4.96,-1.68 2.37333,0 4.96,0.693333 7.76,2.08 l -2.04,4.44 c -2.13333,-1.04 -3.82667,-1.56 -5.08,-1.56 -1.46667,0 -2.2,0.36 -2.2,1.08 z"
             id="path973" />
          <path
             style="color:#000000;font-style:normal;font-variant:normal;font-weight:normal;font-stretch:normal;font-size:medium;line-height:1.25;font-family:HalisGR-Bold;-inkscape-font-specification:HalisGR-Bold;font-variant-ligatures:normal;font-variant-position:normal;font-variant-caps:normal;font-variant-numeric:normal;font-variant-alternates:normal;font-variant-east-asian:normal;font-feature-settings:normal;font-variation-settings:normal;text-indent:0;text-align:start;text-decoration:none;text-decoration-line:none;text-decoration-style:solid;text-decoration-color:#000000;letter-spacing:normal;word-spacing:normal;text-transform:none;writing-mode:lr-tb;direction:ltr;text-orientation:mixed;dominant-baseline:auto;baseline-shift:baseline;text-anchor:start;white-space:normal;shape-padding:0;shape-margin:0;inline-size:0;clip-rule:nonzero;display:inline;overflow:visible;visibility:visible;isolation:auto;mix-blend-mode:normal;color-interpolation:sRGB;color-interpolation-filters:linearRGB;solid-color:#000000;solid-opacity:1;vector-effect:none;fill:#000000;fill-opacity:1;fill-rule:nonzero;stroke:none;stroke-width:0;stroke-linecap:round;stroke-linejoin:miter;stroke-miterlimit:4;stroke-dasharray:none;stroke-dashoffset:0;stroke-opacity:1;color-rendering:auto;image-rendering:auto;shape-rendering:auto;text-rendering:auto;enable-background:accumulate;stop-color:#000000;stop-opacity:1"
             d="m 234.10156,87.162109 c -2.05624,0 -3.71413,0.562655 -4.9707,1.685547 -1.23014,1.096429 -1.8457,2.607843 -1.8457,4.53125 0,0.988541 0.17368,1.858314 0.52148,2.607422 0.34787,0.722504 0.87102,1.32522 1.56641,1.806641 0.72043,0.453604 1.34654,0.800574 1.88086,1.041015 h 0.002 c 0.56048,0.213518 1.30672,0.466374 2.24023,0.759766 1.11941,0.31983 1.94718,0.62768 2.47852,0.91992 0.55647,0.29149 0.83008,0.69688 0.83008,1.22461 0,0.36724 -0.20728,0.66799 -0.63086,0.90625 -0.42393,0.21196 -0.94126,0.31836 -1.55274,0.31836 -1.4622,0 -3.39414,-0.61182 -5.79297,-1.83789 l -0.0137,-0.008 -2.17383,4.26758 0.0117,0.008 c 2.77527,1.6278 5.50001,2.44336 8.16993,2.44336 2.18939,0 3.99172,-0.5611 5.4082,-1.6836 h 0.002 c 1.41654,-1.14926 2.125,-2.63563 2.125,-4.45312 0,-0.88194 -0.16134,-1.67152 -0.48242,-2.367189 h 0.002 c -0.29363,-0.720732 -0.64165,-1.294249 -1.04297,-1.722656 -0.37518,-0.42878 -0.93777,-0.843547 -1.68554,-1.244141 -0.72046,-0.400252 -1.30695,-0.681289 -1.76172,-0.841796 -0.42711,-0.160167 -1.05407,-0.371966 -1.88086,-0.638672 v -0.002 c -0.98607,-0.306481 -1.72527,-0.597975 -2.2168,-0.876953 -0.24576,-0.139488 -0.42916,-0.276723 -0.55078,-0.408203 -0.12162,-0.131479 -0.18164,-0.257432 -0.18164,-0.378906 0,-0.354568 0.17814,-0.616781 0.54102,-0.794922 0.36288,-0.17814 0.9125,-0.269531 1.64453,-0.269531 1.24891,0 2.94004,0.519134 5.07226,1.558594 l 0.0137,0.0078 2.05469,-4.46875 -0.0137,-0.0078 c -2.80161,-1.387465 -5.39113,-2.082032 -7.76758,-2.082032 z m 0,0.0332 c 2.36615,0 4.94544,0.691155 7.73828,2.072266 l -2.02734,4.41211 c -2.12634,-1.034956 -3.81594,-1.556641 -5.07031,-1.556641 -0.73464,0 -1.28775,0.08962 -1.65821,0.271484 -0.37045,0.18186 -0.55859,0.458787 -0.55859,0.824219 0,0.13186 0.0644,0.265203 0.18945,0.400391 0.12505,0.135187 0.31103,0.273551 0.5586,0.414062 0.49513,0.281023 1.23539,0.574008 2.22265,0.880859 0.82655,0.266627 1.45269,0.480792 1.87891,0.640626 h 0.002 c 0.4519,0.159492 1.03632,0.438143 1.75586,0.83789 h 0.002 c 0.74555,0.399406 1.30234,0.811775 1.67382,1.236328 l 0.002,0.002 c 0.39826,0.424815 0.74236,0.996175 1.03515,1.714844 h 0.002 c 0.31892,0.690993 0.47851,1.475453 0.47851,2.353513 0,1.80918 -0.7051,3.28367 -2.11523,4.42773 -1.41019,1.11751 -3.20474,1.67578 -5.38867,1.67578 -2.65902,0 -5.37203,-0.81147 -8.13868,-2.43164 l 2.14649,-4.21289 c 2.39332,1.22149 4.32336,1.83594 5.79101,1.83594 0.61519,0 1.13895,-0.10561 1.56836,-0.32031 0.42976,-0.24174 0.64844,-0.55612 0.64844,-0.93555 0,-0.53893 -0.28608,-0.95872 -0.84961,-1.2539 -0.53532,-0.29443 -1.36182,-0.599752 -2.48242,-0.919923 -0.93315,-0.293275 -1.67877,-0.546616 -2.23828,-0.759765 -0.53235,-0.239559 -1.15739,-0.586 -1.87696,-1.039063 -0.69128,-0.478579 -1.20922,-1.075473 -1.55468,-1.792969 -0.34554,-0.744225 -0.51758,-1.608957 -0.51758,-2.59375 0,-1.916592 0.61079,-3.417574 1.83398,-4.507812 1.2501,-1.117108 2.8988,-1.675782 4.94922,-1.675782 z"
             id="path975" />
        </g>
        <g
           id="g977"
           style="stroke-width:0.565905;stroke-linecap:round"
           transform="matrix(1.2156066,0,0,1.2156066,94.093759,17.142606)">
          <path
             style="color:#000000;font-style:normal;font-variant:normal;font-weight:normal;font-stretch:normal;font-size:medium;line-height:1.25;font-family:HalisGR-Bold;-inkscape-font-specification:HalisGR-Bold;font-variant-ligatures:normal;font-variant-position:normal;font-variant-caps:normal;font-variant-numeric:normal;font-variant-alternates:normal;font-variant-east-asian:normal;font-feature-settings:normal;font-variation-settings:normal;text-indent:0;text-align:start;text-decoration:none;text-decoration-line:none;text-decoration-style:solid;text-decoration-color:#000000;letter-spacing:normal;word-spacing:normal;text-transform:none;writing-mode:lr-tb;direction:ltr;text-orientation:mixed;dominant-baseline:auto;baseline-shift:baseline;text-anchor:start;white-space:normal;shape-padding:0;shape-margin:0;inline-size:0;clip-rule:nonzero;display:inline;overflow:visible;visibility:visible;isolation:auto;mix-blend-mode:normal;color-interpolation:sRGB;color-interpolation-filters:linearRGB;solid-color:#000000;solid-opacity:1;vector-effect:none;fill:#97aacb;fill-opacity:1;fill-rule:nonzero;stroke:none;stroke-width:0;stroke-linecap:round;stroke-linejoin:miter;stroke-miterlimit:4;stroke-dasharray:none;stroke-dashoffset:0;stroke-opacity:1;color-rendering:auto;image-rendering:auto;shape-rendering:auto;text-rendering:auto;enable-background:accumulate;stop-color:#000000;stop-opacity:1"
             d="m 264.66136,98.419039 h -12.52 c 0.16,1.253334 0.62667,2.306671 1.4,3.160001 0.77333,0.82667 1.77333,1.24 3,1.24 1.76,0 3.42667,-0.6 5,-1.8 l 2.64,3.64 c -2.45333,2.05333 -5,3.08 -7.64,3.08 -1.81333,0 -3.4,-0.32 -4.76,-0.96 -1.36,-0.66667 -2.4,-1.52 -3.12,-2.56 -0.72,-1.06667 -1.25333,-2.16 -1.6,-3.28 -0.34667,-1.146667 -0.52,-2.306668 -0.52,-3.480001 0,-1.146667 0.17333,-2.28 0.52,-3.4 0.34667,-1.12 0.88,-2.213333 1.6,-3.28 0.72,-1.066667 1.76,-1.92 3.12,-2.56 1.36,-0.666667 2.94667,-1 4.76,-1 2.61333,0 4.64,0.773333 6.08,2.32 1.46667,1.546667 2.2,3.64 2.2,6.28 0,0.56 -0.0533,1.426667 -0.16,2.6 z m -8.12,-6.36 c -2.13333,0 -3.54667,1.053333 -4.24,3.16 h 7.16 c -0.0533,-2.08 -1.02667,-3.133333 -2.92,-3.16 z"
             id="path979" />
          <path
             style="color:#000000;font-style:normal;font-variant:normal;font-weight:normal;font-stretch:normal;font-size:medium;line-height:1.25;font-family:HalisGR-Bold;-inkscape-font-specification:HalisGR-Bold;font-variant-ligatures:normal;font-variant-position:normal;font-variant-caps:normal;font-variant-numeric:normal;font-variant-alternates:normal;font-variant-east-asian:normal;font-feature-settings:normal;font-variation-settings:normal;text-indent:0;text-align:start;text-decoration:none;text-decoration-line:none;text-decoration-style:solid;text-decoration-color:#000000;letter-spacing:normal;word-spacing:normal;text-transform:none;writing-mode:lr-tb;direction:ltr;text-orientation:mixed;dominant-baseline:auto;baseline-shift:baseline;text-anchor:start;white-space:normal;shape-padding:0;shape-margin:0;inline-size:0;clip-rule:nonzero;display:inline;overflow:visible;visibility:visible;isolation:auto;mix-blend-mode:normal;color-interpolation:sRGB;color-interpolation-filters:linearRGB;solid-color:#000000;solid-opacity:1;vector-effect:none;fill:#000000;fill-opacity:1;fill-rule:nonzero;stroke:none;stroke-width:0;stroke-linecap:round;stroke-linejoin:miter;stroke-miterlimit:4;stroke-dasharray:none;stroke-dashoffset:0;stroke-opacity:1;color-rendering:auto;image-rendering:auto;shape-rendering:auto;text-rendering:auto;enable-background:accumulate;stop-color:#000000;stop-opacity:1"
             d="m 256.54102,87.203125 c -1.8153,0 -3.40506,0.334049 -4.76758,1.001953 -1.36134,0.640912 -2.4035,1.495562 -3.125,2.564453 -0.72079,1.067832 -1.2544,2.163538 -1.60156,3.285157 -0.34713,1.121473 -0.52149,2.256017 -0.52149,3.404296 0,1.174909 0.17438,2.336261 0.52149,3.484376 0.34716,1.12162 0.88077,2.21732 1.60156,3.28516 0.72177,1.04256 1.76305,1.89683 3.125,2.56445 h 0.002 c 1.36248,0.64117 2.95041,0.96289 4.76563,0.96289 2.64414,0 5.19489,-1.02884 7.65039,-3.08398 l 0.0117,-0.01 -2.6582,-3.66602 -0.0137,0.01 c -1.57105,1.19825 -3.23387,1.79687 -4.99023,1.79687 -1.22308,0 -2.21784,-0.41079 -2.98829,-1.23437 -0.7672,-0.84657 -1.22872,-1.890545 -1.39062,-3.132813 h 12.51367 l 0.002,-0.01563 c 0.10669,-1.173562 0.16016,-2.040547 0.16016,-2.601563 0,-2.642963 -0.73528,-4.74105 -2.20508,-6.291015 -1.44329,-1.5502 -3.4753,-2.324219 -6.09179,-2.324219 z m 0,0.03125 c 2.61017,0 4.63164,0.773273 6.06836,2.316406 1.46353,1.543369 2.19531,3.630541 2.19531,6.267578 0,0.555637 -0.0548,1.421555 -0.16016,2.583985 h -12.52148 l 0.002,0.01953 c 0.16035,1.256093 0.62871,2.312156 1.4043,3.167966 0.77621,0.82975 1.78145,1.2461 3.01172,1.2461 1.75865,0 3.42439,-0.60191 4.99609,-1.79688 l 2.62109,3.61524 c -2.44711,2.04418 -4.98605,3.06836 -7.61718,3.06836 -1.81146,0 -3.39444,-0.32015 -4.75196,-0.95899 v 0.002 c -1.35755,-0.66546 -2.39703,-1.51776 -3.11523,-2.55468 v -0.002 c -0.71869,-1.06501 -1.25166,-2.15754 -1.59766,-3.27539 -0.34623,-1.145218 -0.51953,-2.302849 -0.51953,-3.474607 0,-1.145054 0.17332,-2.276004 0.51953,-3.394531 0.34617,-1.118382 0.87844,-2.211842 1.59766,-3.277344 0.71821,-1.064024 1.75735,-1.913729 3.11523,-2.552734 1.35748,-0.66543 2.94058,-1 4.75196,-1 z m 0,4.808594 c -1.0693,0 -1.96017,0.263997 -2.66993,0.792969 -0.70976,0.528971 -1.23655,1.323258 -1.58398,2.378906 l -0.008,0.01953 h 7.19922 l -0.002,-0.01563 c -0.0267,-1.042424 -0.2833,-1.830913 -0.77344,-2.361328 -0.49013,-0.530415 -1.21251,-0.801079 -2.1621,-0.814453 z m 0,0.03125 c 0.94373,0.01329 1.65546,0.283722 2.13867,0.80664 0.47993,0.519375 0.73025,1.295202 0.75976,2.322266 h -7.10937 c 0.34598,-1.0369 0.86328,-1.822137 1.56054,-2.341797 0.70358,-0.524362 1.58636,-0.787109 2.6504,-0.787109 z"
             id="path981" />
        </g>
        <g
           id="g983"
           style="stroke-width:0.565905;stroke-linecap:round"
           transform="matrix(1.2156066,0,0,1.2156066,94.093759,17.142606)">
          <path
             style="color:#000000;font-style:normal;font-variant:normal;font-weight:normal;font-stretch:normal;font-size:medium;line-height:1.25;font-family:HalisGR-Bold;-inkscape-font-specification:HalisGR-Bold;font-variant-ligatures:normal;font-variant-position:normal;font-variant-caps:normal;font-variant-numeric:normal;font-variant-alternates:normal;font-variant-east-asian:normal;font-feature-settings:normal;font-variation-settings:normal;text-indent:0;text-align:start;text-decoration:none;text-decoration-line:none;text-decoration-style:solid;text-decoration-color:#000000;letter-spacing:normal;word-spacing:normal;text-transform:none;writing-mode:lr-tb;direction:ltr;text-orientation:mixed;dominant-baseline:auto;baseline-shift:baseline;text-anchor:start;white-space:normal;shape-padding:0;shape-margin:0;inline-size:0;clip-rule:nonzero;display:inline;overflow:visible;visibility:visible;isolation:auto;mix-blend-mode:normal;color-interpolation:sRGB;color-interpolation-filters:linearRGB;solid-color:#000000;solid-opacity:1;vector-effect:none;fill:#97aacb;fill-opacity:1;fill-rule:nonzero;stroke:none;stroke-width:0;stroke-linecap:round;stroke-linejoin:miter;stroke-miterlimit:4;stroke-dasharray:none;stroke-dashoffset:0;stroke-opacity:1;color-rendering:auto;image-rendering:auto;shape-rendering:auto;text-rendering:auto;enable-background:accumulate;stop-color:#000000;stop-opacity:1"
             d="m 303.22128,87.859039 c 0,1.066667 -0.33333,2.146667 -1,3.24 -0.64,1.093333 -1.45333,1.88 -2.44,2.36 0.98667,0.506667 1.8,1.28 2.44,2.32 0.66667,1.013333 1,2.146667 1,3.4 0,1.013331 -0.17333,1.986671 -0.52,2.920001 -0.32,0.90667 -0.85333,1.78667 -1.6,2.64 -0.72,0.82667 -1.76,1.49333 -3.12,2 -1.33333,0.50667 -2.92,0.76 -4.76,0.76 h -10.6 V 79.499039 h 10.6 c 1.84,0 3.42667,0.253333 4.76,0.76 1.36,0.506667 2.4,1.186667 3.12,2.04 0.74667,0.853333 1.28,1.746667 1.6,2.68 0.34667,0.906667 0.52,1.866667 0.52,2.88 z m -9.48,3.28 c 0.98667,-0.02667 1.77333,-0.253333 2.36,-0.68 0.61333,-0.453333 0.98667,-0.893333 1.12,-1.32 0.16,-0.426667 0.24,-0.853333 0.24,-1.28 0,-0.373333 -0.08,-0.773333 -0.24,-1.2 -0.13333,-0.426667 -0.52,-0.866667 -1.16,-1.32 -0.61333,-0.453333 -1.42667,-0.68 -2.44,-0.68 h -5.4 v 6.48 z m -0.12,11.160001 c 1.01333,0 1.82667,-0.21333 2.44,-0.64 0.64,-0.45333 1.02667,-0.88 1.16,-1.28 0.16,-0.426667 0.24,-0.826668 0.24,-1.200001 0,-0.453333 -0.08,-0.866667 -0.24,-1.24 -0.13333,-0.4 -0.50667,-0.786667 -1.12,-1.16 -0.58667,-0.373333 -1.37333,-0.573333 -2.36,-0.6 h -5.52 v 6.120001 z"
             id="path985" />
          <path
             style="color:#000000;font-style:normal;font-variant:normal;font-weight:normal;font-stretch:normal;font-size:medium;line-height:1.25;font-family:HalisGR-Bold;-inkscape-font-specification:HalisGR-Bold;font-variant-ligatures:normal;font-variant-position:normal;font-variant-caps:normal;font-variant-numeric:normal;font-variant-alternates:normal;font-variant-east-asian:normal;font-feature-settings:normal;font-variation-settings:normal;text-indent:0;text-align:start;text-decoration:none;text-decoration-line:none;text-decoration-style:solid;text-decoration-color:#000000;letter-spacing:normal;word-spacing:normal;text-transform:none;writing-mode:lr-tb;direction:ltr;text-orientation:mixed;dominant-baseline:auto;baseline-shift:baseline;text-anchor:start;white-space:normal;shape-padding:0;shape-margin:0;inline-size:0;clip-rule:nonzero;display:inline;overflow:visible;visibility:visible;isolation:auto;mix-blend-mode:normal;color-interpolation:sRGB;color-interpolation-filters:linearRGB;solid-color:#000000;solid-opacity:1;vector-effect:none;fill:#000000;fill-opacity:1;fill-rule:nonzero;stroke:none;stroke-width:0;stroke-linecap:round;stroke-linejoin:miter;stroke-miterlimit:4;stroke-dasharray:none;stroke-dashoffset:0;stroke-opacity:1;color-rendering:auto;image-rendering:auto;shape-rendering:auto;text-rendering:auto;enable-background:accumulate;stop-color:#000000;stop-opacity:1"
             d="m 282.60547,79.482422 v 28.033198 h 10.61523 c 1.84147,0 3.43001,-0.25418 4.76563,-0.76171 1.3618,-0.50734 2.40474,-1.1747 3.12695,-2.00391 0.74737,-0.85413 1.28268,-1.73619 1.60352,-2.64453 v -0.002 c 0.34687,-0.93456 0.51953,-1.90933 0.51953,-2.923832 0,-1.255547 -0.33429,-2.392725 -1.00195,-3.408204 -0.63712,-1.035316 -1.44905,-1.802335 -2.42969,-2.310546 0.98186,-0.482265 1.79217,-1.264434 2.42969,-2.353516 0.66787,-1.095308 1.00195,-2.178047 1.00195,-3.248047 0,-1.014493 -0.17261,-1.976767 -0.51953,-2.884766 v -0.002 c -0.32081,-0.934985 -0.8561,-1.829395 -1.60352,-2.683594 -0.72219,-0.855935 -1.76506,-1.537551 -3.12695,-2.044921 -1.33562,-0.507535 -2.92416,-0.761719 -4.76563,-0.761719 z m 0.0312,0.0332 h 10.58398 c 1.83853,0 3.42481,0.252014 4.75586,0.757813 1.35811,0.505963 2.39548,1.184424 3.11328,2.035156 v 0.002 c 0.74551,0.85201 1.27646,1.742691 1.59571,2.673828 0.34595,0.904809 0.51953,1.863491 0.51953,2.875 0,1.063333 -0.33259,2.13911 -0.99805,3.230469 v 0.002 c -0.6387,1.091121 -1.45,1.875011 -2.43359,2.353515 l -0.0274,0.01367 0.0274,0.01367 c 0.98396,0.505277 1.79491,1.276591 2.43359,2.314453 0.665,1.010803 0.99805,2.142082 0.99805,3.392579 0,1.011515 -0.17352,1.982505 -0.51953,2.914065 -0.31923,0.90447 -0.85014,1.78269 -1.59571,2.63477 -0.71778,0.82412 -1.75508,1.49009 -3.11328,1.99609 -1.33105,0.5058 -2.91733,0.75781 -4.75586,0.75781 h -10.58398 z m 5.56836,5.126953 v 6.511719 h 5.53711 c 0.98888,-0.02673 1.77915,-0.252558 2.36914,-0.681641 0.61482,-0.45443 0.99006,-0.896331 1.125,-1.328125 0.16061,-0.428308 0.24023,-0.856489 0.24023,-1.285156 0,-0.375619 -0.0797,-0.776975 -0.24023,-1.205078 -0.13503,-0.432083 -0.52451,-0.873726 -1.16602,-1.328125 -0.61672,-0.455837 -1.4335,-0.683594 -2.44922,-0.683594 z m 0.0312,0.0332 h 5.38476 c 1.01095,0 1.8217,0.224952 2.43164,0.675781 0.6385,0.452268 1.02071,0.89125 1.15235,1.3125 h 0.002 c 0.15946,0.425231 0.23828,0.824265 0.23828,1.195313 0,0.424667 -0.0789,0.848413 -0.23828,1.273437 v 0.002 h -0.002 c -0.13173,0.421539 -0.50143,0.85831 -1.11328,1.310546 -0.5829,0.423926 -1.36623,0.650843 -2.34961,0.677735 h -5.50586 z m -0.0312,11.486328 v 6.152337 h 5.41601 c 1.01558,0 1.8325,-0.21355 2.44922,-0.64257 0.64139,-0.45432 1.03083,-0.88155 1.16602,-1.28711 0.16054,-0.428104 0.24023,-0.829459 0.24023,-1.205078 0,-0.455216 -0.0793,-0.870606 -0.24023,-1.246094 -0.13519,-0.405566 -0.51189,-0.793584 -1.12695,-1.167969 -0.58995,-0.375422 -1.3786,-0.576797 -2.36719,-0.603516 z m 0.0312,0.0332 h 5.5039 c 0.98474,0.02661 1.76818,0.226412 2.35157,0.597657 h 0.002 c 0.61161,0.372281 0.9818,0.755956 1.11328,1.15039 v 0.002 c 0.15908,0.371179 0.23828,0.782925 0.23828,1.234376 0,0.371047 -0.0788,0.768128 -0.23828,1.193364 -0.13148,0.39443 -0.51568,0.82108 -1.1543,1.27343 -0.60994,0.42431 -1.42055,0.63672 -2.43164,0.63672 h -5.38476 z"
             id="path987" />
        </g>
        <g
           id="g989"
           style="stroke-width:0.565905;stroke-linecap:round"
           transform="matrix(1.2156066,0,0,1.2156066,94.093759,17.142606)">
          <path
             style="color:#000000;font-style:normal;font-variant:normal;font-weight:normal;font-stretch:normal;font-size:medium;line-height:1.25;font-family:HalisGR-Bold;-inkscape-font-specification:HalisGR-Bold;font-variant-ligatures:normal;font-variant-position:normal;font-variant-caps:normal;font-variant-numeric:normal;font-variant-alternates:normal;font-variant-east-asian:normal;font-feature-settings:normal;font-variation-settings:normal;text-indent:0;text-align:start;text-decoration:none;text-decoration-line:none;text-decoration-style:solid;text-decoration-color:#000000;letter-spacing:normal;word-spacing:normal;text-transform:none;writing-mode:lr-tb;direction:ltr;text-orientation:mixed;dominant-baseline:auto;baseline-shift:baseline;text-anchor:start;white-space:normal;shape-padding:0;shape-margin:0;inline-size:0;clip-rule:nonzero;display:inline;overflow:visible;visibility:visible;isolation:auto;mix-blend-mode:normal;color-interpolation:sRGB;color-interpolation-filters:linearRGB;solid-color:#000000;solid-opacity:1;vector-effect:none;fill:#97aacb;fill-opacity:1;fill-rule:nonzero;stroke:none;stroke-width:0;stroke-linecap:round;stroke-linejoin:miter;stroke-miterlimit:4;stroke-dasharray:none;stroke-dashoffset:0;stroke-opacity:1;color-rendering:auto;image-rendering:auto;shape-rendering:auto;text-rendering:auto;enable-background:accumulate;stop-color:#000000;stop-opacity:1"
             d="m 315.30125,97.779039 v 9.720001 h -5.68 V 79.499039 h 10.68 c 1.81333,0 3.4,0.293333 4.76,0.88 1.38667,0.586667 2.44,1.36 3.16,2.32 0.72,0.933333 1.24,1.893333 1.56,2.88 0.34667,0.986667 0.52,1.986667 0.52,3 0,2.64 -0.97333,4.84 -2.92,6.6 -1.92,1.733333 -4.10667,2.6 -6.56,2.6 z m 5.36,-5.24 c 1.41333,-0.02667 2.42667,-0.466667 3.04,-1.32 0.61333,-0.88 0.92,-1.76 0.92,-2.64 0,-0.933333 -0.32,-1.813333 -0.96,-2.64 -0.61333,-0.853333 -1.66667,-1.28 -3.16,-1.28 h -5.2 v 7.88 z"
             id="path991" />
          <path
             style="color:#000000;font-style:normal;font-variant:normal;font-weight:normal;font-stretch:normal;font-size:medium;line-height:1.25;font-family:HalisGR-Bold;-inkscape-font-specification:HalisGR-Bold;font-variant-ligatures:normal;font-variant-position:normal;font-variant-caps:normal;font-variant-numeric:normal;font-variant-alternates:normal;font-variant-east-asian:normal;font-feature-settings:normal;font-variation-settings:normal;text-indent:0;text-align:start;text-decoration:none;text-decoration-line:none;text-decoration-style:solid;text-decoration-color:#000000;letter-spacing:normal;word-spacing:normal;text-transform:none;writing-mode:lr-tb;direction:ltr;text-orientation:mixed;dominant-baseline:auto;baseline-shift:baseline;text-anchor:start;white-space:normal;shape-padding:0;shape-margin:0;inline-size:0;clip-rule:nonzero;display:inline;overflow:visible;visibility:visible;isolation:auto;mix-blend-mode:normal;color-interpolation:sRGB;color-interpolation-filters:linearRGB;solid-color:#000000;solid-opacity:1;vector-effect:none;fill:#000000;fill-opacity:1;fill-rule:nonzero;stroke:none;stroke-width:0;stroke-linecap:round;stroke-linejoin:miter;stroke-miterlimit:4;stroke-dasharray:none;stroke-dashoffset:0;stroke-opacity:1;color-rendering:auto;image-rendering:auto;shape-rendering:auto;text-rendering:auto;enable-background:accumulate;stop-color:#000000;stop-opacity:1"
             d="m 309.60547,79.482422 v 28.033198 h 5.71094 v -9.720698 h 5.5039 c 2.4571,0 4.64975,-0.867911 6.57227,-2.603516 1.94962,-1.762669 2.92383,-3.969348 2.92383,-6.613281 0,-1.015158 -0.1723,-2.015623 -0.51953,-3.003906 -0.32063,-0.988608 -0.84154,-1.950181 -1.5625,-2.884766 -0.72202,-0.962693 -1.77738,-1.736719 -3.16602,-2.324219 -1.36238,-0.587691 -2.95252,-0.882812 -4.76758,-0.882812 z m 0.0312,0.0332 h 10.66406 c 1.81161,0 3.39628,0.293264 4.75391,0.878906 1.3847,0.585834 2.43631,1.357146 3.15429,2.314453 0.71904,0.932082 1.23727,1.890275 1.55664,2.875 0.3461,0.985051 0.51954,1.982632 0.51954,2.994141 0,2.636067 -0.97035,4.832513 -2.91407,6.589844 -1.91748,1.731062 -4.10121,2.595703 -6.55078,2.595703 h -5.53515 v 0.01563 9.703121 h -5.64844 z m 5.64844,5.126953 v 7.91211 h 5.37695 c 1.41651,-0.02673 2.43605,-0.468174 3.05273,-1.326172 0.61477,-0.882053 0.92188,-1.766674 0.92188,-2.650391 0,-0.93699 -0.32111,-1.819466 -0.96289,-2.648437 -0.61693,-0.858331 -1.6755,-1.28711 -3.17188,-1.28711 z m 0.0312,0.0332 h 5.18554 c 1.49029,0 2.53675,0.425102 3.14649,1.273438 0.63821,0.824362 0.95703,1.69923 0.95703,2.628906 0,0.876283 -0.30607,1.752912 -0.91797,2.630859 -0.60966,0.848228 -1.61638,1.287434 -3.02539,1.314454 h -5.3457 z"
             id="path993" />
        </g>
      </g>
    </g>
  </g>
</svg>
