<?xml version="1.0" encoding="UTF-8" standalone="no"?>
<svg
   xmlns:dc="http://purl.org/dc/elements/1.1/"
   xmlns:cc="http://creativecommons.org/ns#"
   xmlns:rdf="http://www.w3.org/1999/02/22-rdf-syntax-ns#"
   xmlns:svg="http://www.w3.org/2000/svg"
   xmlns="http://www.w3.org/2000/svg"
   xmlns:sodipodi="http://sodipodi.sourceforge.net/DTD/sodipodi-0.dtd"
   xmlns:inkscape="http://www.inkscape.org/namespaces/inkscape"
   width="110.6736mm"
   height="19.690168mm"
   viewBox="0 0 110.6736 19.690168"
   version="1.1"
   id="svg916"
   inkscape:version="1.0.1 (3bc2e813f5, 2020-09-07)"
   sodipodi:docname="LogoT.svg"
   inkscape:export-filename="D:\Dropbox\Docs\OptBP\BP APP Directors\design\Logo\LogoT.png"
   inkscape:export-xdpi="60.988655"
   inkscape:export-ydpi="60.988655">
  <defs
     id="defs910">
    <filter
       inkscape:collect="always"
       style="color-interpolation-filters:sRGB"
       id="filter1890"
       x="-0.0010966104"
       width="1.0021932"
       y="-0.00022767737"
       height="1.0004554">
      <feGaussianBlur
         inkscape:collect="always"
         stdDeviation="0.0028111332"
         id="feGaussianBlur1892" />
    </filter>
    <filter
       inkscape:collect="always"
       style="color-interpolation-filters:sRGB"
       id="filter1894"
       x="-0.00023562839"
       width="1.0004714"
       y="-0.00033147461"
       height="1.0006629">
      <feGaussianBlur
         inkscape:collect="always"
         stdDeviation="0.0028111332"
         id="feGaussianBlur1896" />
    </filter>
    <filter
       inkscape:collect="always"
       style="color-interpolation-filters:sRGB"
       id="filter1898"
       x="-0.0010966104"
       width="1.0021932"
       y="-0.00022767737"
       height="1.0004554">
      <feGaussianBlur
         inkscape:collect="always"
         stdDeviation="0.0028111332"
         id="feGaussianBlur1900" />
    </filter>
  </defs>
  <sodipodi:namedview
     id="base"
     pagecolor="#ffffff"
     bordercolor="#666666"
     borderopacity="1.0"
     inkscape:pageopacity="0.0"
     inkscape:pageshadow="2"
     inkscape:zoom="0.9899495"
     inkscape:cx="305.01879"
     inkscape:cy="62.456181"
     inkscape:document-units="mm"
     inkscape:current-layer="layer1"
     inkscape:document-rotation="0"
     showgrid="false"
     fit-margin-top="0"
     fit-margin-left="0"
     fit-margin-right="0"
     fit-margin-bottom="0"
     inkscape:window-width="1267"
     inkscape:window-height="860"
     inkscape:window-x="73"
     inkscape:window-y="0"
     inkscape:window-maximized="0" />
  <metadata
     id="metadata913">
    <rdf:RDF>
      <cc:Work
         rdf:about="">
        <dc:format>image/svg+xml</dc:format>
        <dc:type
           rdf:resource="http://purl.org/dc/dcmitype/StillImage" />
        <dc:title></dc:title>
      </cc:Work>
    </rdf:RDF>
  </metadata>
  <g
     inkscape:label="Layer 1"
     inkscape:groupmode="layer"
     id="layer1"
     transform="translate(38.705847,37.487911)">
    <path
       style="color:#000000;font-style:normal;font-variant:normal;font-weight:normal;font-stretch:normal;font-size:medium;line-height:1.25;font-family:HalisGR-Bold;-inkscape-font-specification:HalisGR-Bold;font-variant-ligatures:normal;font-variant-position:normal;font-variant-caps:normal;font-variant-numeric:normal;font-variant-alternates:normal;font-variant-east-asian:normal;font-feature-settings:normal;font-variation-settings:normal;text-indent:0;text-align:start;text-decoration:none;text-decoration-line:none;text-decoration-style:solid;text-decoration-color:#000000;letter-spacing:normal;word-spacing:normal;text-transform:none;writing-mode:lr-tb;direction:ltr;text-orientation:mixed;dominant-baseline:auto;baseline-shift:baseline;text-anchor:start;white-space:normal;shape-padding:0;shape-margin:0;inline-size:0;clip-rule:nonzero;display:inline;overflow:visible;visibility:visible;isolation:auto;mix-blend-mode:normal;color-interpolation:sRGB;color-interpolation-filters:linearRGB;solid-color:#000000;solid-opacity:1;vector-effect:none;fill:#97aacb;fill-opacity:1;fill-rule:nonzero;stroke:none;stroke-width:0;stroke-linecap:round;stroke-linejoin:miter;stroke-miterlimit:4;stroke-dasharray:none;stroke-dashoffset:0;stroke-opacity:1;color-rendering:auto;image-rendering:auto;shape-rendering:auto;text-rendering:auto;enable-background:accumulate;stop-color:#000000"
       d="m -31.415798,-36.889994 c 1.060215,0 2.015764,0.167397 2.866706,0.502202 0.86492,0.334791 1.562406,0.760274 2.092494,1.276415 0.530119,0.51615 0.969531,1.11601 1.318292,1.799549 0.362695,0.683561 0.613799,1.353153 0.753284,2.008807 0.139521,0.655648 0.209241,1.311285 0.209241,1.966934 0,0.669605 -0.06972,1.33921 -0.209241,2.008802 -0.139485,0.655641 -0.390589,1.325247 -0.753284,2.0088 -0.348761,0.68354 -0.788173,1.283404 -1.318292,1.799541 -0.530088,0.516136 -1.227574,0.941622 -2.092494,1.276423 -0.850942,0.320848 -1.806491,0.481275 -2.866706,0.481275 -1.074156,0 -2.043687,-0.160427 -2.908584,-0.481275 -0.850942,-0.334801 -1.541452,-0.760287 -2.07158,-1.276423 -0.530071,-0.516137 -0.976476,-1.116001 -1.339201,-1.799541 -0.362669,-0.683557 -0.613777,-1.353159 -0.753285,-2.0088 -0.139503,-0.669592 -0.20924,-1.339197 -0.20924,-2.008802 0,-0.655649 0.06974,-1.311286 0.20924,-1.966934 0.139508,-0.655654 0.390616,-1.325246 0.753285,-2.008807 0.362725,-0.683539 0.80913,-1.283399 1.339201,-1.799549 0.530128,-0.516141 1.220638,-0.941624 2.07158,-1.276415 0.864897,-0.334805 1.834428,-0.502202 2.908584,-0.502202 z m 0,12.387576 c 0.697482,0 1.311307,-0.132527 1.841403,-0.397566 0.544045,-0.265047 0.955562,-0.578923 1.234543,-0.941627 0.292984,-0.376642 0.530131,-0.802126 0.711481,-1.27643 0.18132,-0.488229 0.299922,-0.906749 0.355706,-1.255483 0.05581,-0.348747 0.0837,-0.669597 0.0837,-0.962563 0,-0.292941 -0.02797,-0.61379 -0.0837,-0.962533 -0.05579,-0.348753 -0.174386,-0.760286 -0.355706,-1.234582 -0.18135,-0.474295 -0.418497,-0.892801 -0.711481,-1.255496 -0.278981,-0.376655 -0.690498,-0.690528 -1.234543,-0.941623 -0.530096,-0.265046 -1.143921,-0.397574 -1.841403,-0.397574 -0.711439,0 -1.339193,0.132528 -1.883256,0.397574 -0.544061,0.251095 -0.962542,0.564968 -1.255487,0.941623 -0.279011,0.362695 -0.516175,0.781201 -0.711455,1.255496 -0.18135,0.474296 -0.29993,0.885829 -0.355723,1.234582 -0.04191,0.348743 -0.06277,0.669592 -0.06277,0.962533 0,0.292966 0.021,0.613816 0.06277,0.962563 0.0558,0.348734 0.174373,0.767254 0.355723,1.255483 0.19528,0.474304 0.432444,0.899788 0.711455,1.27643 0.292945,0.362704 0.711426,0.67658 1.255487,0.941627 0.544063,0.265039 1.171817,0.397566 1.883256,0.397566 z"
       id="path937" />
    <path
       style="color:#000000;font-style:normal;font-variant:normal;font-weight:normal;font-stretch:normal;font-size:medium;line-height:1.25;font-family:HalisGR-Bold;-inkscape-font-specification:HalisGR-Bold;font-variant-ligatures:normal;font-variant-position:normal;font-variant-caps:normal;font-variant-numeric:normal;font-variant-alternates:normal;font-variant-east-asian:normal;font-feature-settings:normal;font-variation-settings:normal;text-indent:0;text-align:start;text-decoration:none;text-decoration-line:none;text-decoration-style:solid;text-decoration-color:#000000;letter-spacing:normal;word-spacing:normal;text-transform:none;writing-mode:lr-tb;direction:ltr;text-orientation:mixed;dominant-baseline:auto;baseline-shift:baseline;text-anchor:start;white-space:normal;shape-padding:0;shape-margin:0;inline-size:0;clip-rule:nonzero;display:inline;overflow:visible;visibility:visible;isolation:auto;mix-blend-mode:normal;color-interpolation:sRGB;color-interpolation-filters:linearRGB;solid-color:#000000;solid-opacity:1;vector-effect:none;fill:#000000;fill-opacity:1;fill-rule:nonzero;stroke:none;stroke-width:0;stroke-linecap:round;stroke-linejoin:miter;stroke-miterlimit:4;stroke-dasharray:none;stroke-dashoffset:0;stroke-opacity:1;color-rendering:auto;image-rendering:auto;shape-rendering:auto;text-rendering:auto;enable-background:accumulate;stop-color:#000000"
       d="m -31.415828,-36.897904 c -1.075012,0 -2.04592,0.167458 -2.911906,0.502693 -0.851793,0.335114 -1.543063,0.761087 -2.074128,1.278171 -0.53073,0.516769 -0.97741,1.117038 -1.340497,1.801309 -0.363009,0.684133 -0.614349,1.354246 -0.754059,2.010747 -0.139585,0.656221 -0.209429,1.312628 -0.209429,1.968871 0,0.670177 0.06985,1.340635 0.209429,2.010768 0.13971,0.656498 0.39105,1.326613 0.754059,2.010746 0.363087,0.684288 0.809767,1.284544 1.340497,1.801305 0.531065,0.517096 1.222335,0.943077 2.074128,1.2782 0.865952,0.321241 1.836929,0.482235 2.911906,0.482235 1.061042,0 2.018015,-0.160986 2.87002,-0.482235 0.865723,-0.335119 1.563485,-0.761078 2.094543,-1.2782 0.530781,-0.516783 0.970942,-1.11697 1.320093,-1.801305 0.362975,-0.684133 0.614337,-1.354248 0.754031,-2.010746 0.13961,-0.670133 0.209441,-1.340591 0.209441,-2.010768 0,-0.656243 -0.06983,-1.31265 -0.209441,-1.968871 -0.139694,-0.656501 -0.391056,-1.326614 -0.754031,-2.010747 -0.349151,-0.684322 -0.789312,-1.284514 -1.320093,-1.801309 -0.531058,-0.517105 -1.22882,-0.943064 -2.094543,-1.278171 -0.852027,-0.335244 -1.808944,-0.502693 -2.87002,-0.502693 z m 0,0.01644 c 1.059329,0 2.014039,0.167299 2.863892,0.501669 0.864097,0.334482 1.560327,0.7589 2.089426,1.274095 0.52943,0.515491 0.968669,1.115459 1.31703,1.798228 0.362381,0.682972 0.612684,1.351892 0.751968,2.006689 0.1394,0.655089 0.209476,1.30971 0.209476,1.964766 0,0.669019 -0.07006,1.337631 -0.209476,2.006663 -0.139284,0.654793 -0.389587,1.323715 -0.751968,2.006683 -0.348361,0.682773 -0.7876,1.28274 -1.31703,1.798236 -0.529099,0.515186 -1.225329,0.939618 -2.089426,1.274099 -0.849875,0.320449 -1.804528,0.481233 -2.863892,0.481233 -1.073317,0 -2.04193,-0.160775 -2.905787,-0.481233 -0.850137,-0.334477 -1.539842,-0.758887 -2.069002,-1.274099 -0.52946,-0.515522 -0.975121,-1.115402 -1.337437,-1.798236 -0.362398,-0.682968 -0.612671,-1.35189 -0.751989,-2.006683 -0.139414,-0.669032 -0.209464,-1.337644 -0.209464,-2.006663 0,-0.655056 0.07005,-1.309677 0.209464,-1.964766 0.139318,-0.654797 0.389591,-1.323717 0.751989,-2.006689 0.362316,-0.682817 0.807977,-1.282716 1.337437,-1.798228 0.52916,-0.51522 1.218865,-0.939618 2.069002,-1.274095 0.863822,-0.334383 1.832514,-0.501669 2.905787,-0.501669 z m 0,2.745376 c -0.712476,0 -1.341776,0.132794 -1.887128,0.398473 -0.544961,0.25153 -0.963829,0.566152 -1.257738,0.944076 -0.279493,0.363354 -0.517626,0.782845 -0.713191,1.257751 -0.181469,0.474657 -0.300652,0.886721 -0.356562,1.23629 -0.04157,0.349028 -0.06231,0.670144 -0.06231,0.963481 0,0.293354 0.02056,0.614461 0.06231,0.963493 0.05591,0.349548 0.175101,0.769155 0.356562,1.257742 0.195556,0.474885 0.432725,0.900931 0.712157,1.278194 h 8.62e-4 c 0.293887,0.363891 0.71287,0.678625 1.257733,0.944055 0.545345,0.265704 1.174643,0.398486 1.887132,0.398486 0.698558,0 1.313829,-0.132752 1.845217,-0.398486 0.544918,-0.265443 0.95733,-0.580065 1.237336,-0.944055 0.293474,-0.37734 0.531517,-0.80318 0.713156,-1.278194 0.181473,-0.488587 0.299641,-0.908194 0.355567,-1.257742 0.05587,-0.349114 0.08377,-0.669997 0.08377,-0.963493 0,-0.293471 -0.02802,-0.614372 -0.08377,-0.963481 -0.05592,-0.349569 -0.174085,-0.761633 -0.355567,-1.23629 -0.181648,-0.475039 -0.419626,-0.89432 -0.713156,-1.257751 -0.280018,-0.378023 -0.69231,-0.692537 -1.237336,-0.944076 -0.531388,-0.265708 -1.146659,-0.398473 -1.845217,-0.398473 z m 0,0.01653 c 0.69644,0 1.309314,0.133056 1.838099,0.397449 0.543097,0.25066 0.95319,0.563685 1.231176,0.938972 0.292348,0.361959 0.529026,0.780086 0.710096,1.253645 0.181216,0.473917 0.299896,0.884276 0.355543,1.232198 0.05575,0.348394 0.0838,0.669032 0.0838,0.961444 0,0.292421 -0.0281,0.613071 -0.0838,0.961453 -0.05564,0.347964 -0.174318,0.765764 -0.355543,1.253654 -0.181078,0.473603 -0.41768,0.898131 -0.710096,1.274102 -0.278007,0.3614 -0.687971,0.674334 -1.231176,0.938977 -0.528785,0.26437 -1.141659,0.397448 -1.838099,0.397448 -0.71042,0 -1.337227,-0.133048 -1.879972,-0.397448 -0.542956,-0.264531 -0.959667,-0.577702 -1.251623,-0.938977 -0.278551,-0.376057 -0.516051,-0.800371 -0.711115,-1.274102 -0.181225,-0.48789 -0.298889,-0.90569 -0.354549,-1.253654 -0.04175,-0.348477 -0.06334,-0.668887 -0.06334,-0.961453 0,-0.292554 0.02165,-0.612968 0.06334,-0.961444 0.05566,-0.347922 0.173337,-0.758281 0.354549,-1.232198 0.195052,-0.473697 0.432629,-0.891604 0.711115,-1.253645 0.291939,-0.375123 0.708788,-0.688442 1.251623,-0.938972 0.542745,-0.264419 1.169552,-0.397449 1.879972,-0.397449 z"
       id="path939" />
    <g
       id="g941"
       style="font-size:40px;line-height:1.25;font-family:HalisGR-Bold;-inkscape-font-specification:HalisGR-Bold;fill:#808000;stroke:#000000;stroke-width:0.505774;stroke-linecap:round;stroke-opacity:1"
       transform="matrix(0.52312436,0,0,0.52312436,-90.085942,-78.226778)">
      <path
         style="color:#000000;font-style:normal;font-variant:normal;font-weight:normal;font-stretch:normal;font-size:medium;line-height:1.25;font-family:HalisGR-Bold;-inkscape-font-specification:HalisGR-Bold;font-variant-ligatures:normal;font-variant-position:normal;font-variant-caps:normal;font-variant-numeric:normal;font-variant-alternates:normal;font-variant-east-asian:normal;font-feature-settings:normal;font-variation-settings:normal;text-indent:0;text-align:start;text-decoration:none;text-decoration-line:none;text-decoration-style:solid;text-decoration-color:#000000;letter-spacing:normal;word-spacing:normal;text-transform:none;writing-mode:lr-tb;direction:ltr;text-orientation:mixed;dominant-baseline:auto;baseline-shift:baseline;text-anchor:start;white-space:normal;shape-padding:0;shape-margin:0;inline-size:0;clip-rule:nonzero;display:inline;overflow:visible;visibility:visible;isolation:auto;mix-blend-mode:normal;color-interpolation:sRGB;color-interpolation-filters:linearRGB;solid-color:#000000;solid-opacity:1;vector-effect:none;fill:#97aacb;fill-opacity:1;fill-rule:nonzero;stroke:none;stroke-width:0;stroke-linecap:round;stroke-linejoin:miter;stroke-miterlimit:4;stroke-dasharray:none;stroke-dashoffset:0;stroke-opacity:1;color-rendering:auto;image-rendering:auto;shape-rendering:auto;text-rendering:auto;enable-background:accumulate;stop-color:#000000;stop-opacity:1"
         d="m 139.4615,107.81904 c -1.41333,0 -2.61333,-0.22667 -3.6,-0.68 v 8.36 h -5.4 V 87.459039 h 3.72 l 0.44,1.4 c 0.56,-0.506667 1.36,-0.92 2.4,-1.24 1.04,-0.346667 1.98667,-0.52 2.84,-0.52 1.76,0 3.29333,0.333333 4.6,1 1.30667,0.666667 2.29333,1.533333 2.96,2.6 0.69333,1.066667 1.2,2.173333 1.52,3.32 0.32,1.12 0.48,2.266667 0.48,3.44 0,0.96 -0.0933,1.893334 -0.28,2.800001 -0.16,0.88 -0.46667,1.8 -0.92,2.76 -0.45333,0.93333 -1.04,1.74667 -1.76,2.44 -0.72,0.69333 -1.68,1.26667 -2.88,1.72 -1.2,0.42667 -2.57333,0.64 -4.12,0.64 z m 0,-15.840001 c -0.77333,0 -1.49333,0.16 -2.16,0.48 -0.66667,0.32 -1.14667,0.68 -1.44,1.08 v 8.480001 c 0.98667,0.64 2.08,0.96 3.28,0.96 1.01333,0 1.86667,-0.18667 2.56,-0.56 0.72,-0.37333 1.22667,-0.86667 1.52,-1.48 0.32,-0.64 0.53333,-1.226668 0.64,-1.760001 0.13333,-0.533333 0.2,-1.106667 0.2,-1.72 0,-0.533333 -0.0533,-1.053333 -0.16,-1.56 -0.10667,-0.533333 -0.30667,-1.12 -0.6,-1.76 -0.26667,-0.64 -0.73333,-1.16 -1.4,-1.56 -0.66667,-0.4 -1.48,-0.6 -2.44,-0.6 z"
         id="path943" />
      <path
         style="color:#000000;font-style:normal;font-variant:normal;font-weight:normal;font-stretch:normal;font-size:medium;line-height:1.25;font-family:HalisGR-Bold;-inkscape-font-specification:HalisGR-Bold;font-variant-ligatures:normal;font-variant-position:normal;font-variant-caps:normal;font-variant-numeric:normal;font-variant-alternates:normal;font-variant-east-asian:normal;font-feature-settings:normal;font-variation-settings:normal;text-indent:0;text-align:start;text-decoration:none;text-decoration-line:none;text-decoration-style:solid;text-decoration-color:#000000;letter-spacing:normal;word-spacing:normal;text-transform:none;writing-mode:lr-tb;direction:ltr;text-orientation:mixed;dominant-baseline:auto;baseline-shift:baseline;text-anchor:start;white-space:normal;shape-padding:0;shape-margin:0;inline-size:0;clip-rule:nonzero;display:inline;overflow:visible;visibility:visible;isolation:auto;mix-blend-mode:normal;color-interpolation:sRGB;color-interpolation-filters:linearRGB;solid-color:#000000;solid-opacity:1;vector-effect:none;fill:#000000;fill-opacity:1;fill-rule:nonzero;stroke:none;stroke-width:0;stroke-linecap:round;stroke-linejoin:miter;stroke-miterlimit:4;stroke-dasharray:none;stroke-dashoffset:0;stroke-opacity:1;color-rendering:auto;image-rendering:auto;shape-rendering:auto;text-rendering:auto;enable-background:accumulate;stop-color:#000000;stop-opacity:1"
         d="m 139.86133,87.083984 c -0.8555,0 -1.80446,0.17245 -2.84571,0.519532 -1.03213,0.317791 -1.82341,0.731467 -2.38476,1.234375 l -0.4375,-1.394532 h -3.74805 v 28.072261 h 5.43164 v -8.35742 c 0.98594,0.44915 2.17736,0.67774 3.58399,0.67774 1.54814,0 2.92295,-0.21519 4.125,-0.64258 h 0.002 c 1.20153,-0.45391 2.16282,-1.02745 2.88477,-1.72266 0.72137,-0.69465 1.30956,-1.51038 1.76367,-2.44531 0.45383,-0.96105 0.76158,-1.88206 0.92187,-2.76367 h -0.002 c 0.18689,-0.907761 0.28125,-1.841699 0.28125,-2.802736 0,-1.174134 -0.16042,-2.322534 -0.48047,-3.443359 v -0.002 c -0.32033,-1.147157 -0.82819,-2.255344 -1.52148,-3.322266 v -0.002 c -0.66836,-1.06881 -1.65854,-1.937991 -2.9668,-2.605469 -1.30926,-0.667988 -2.8454,-1 -4.60742,-1 z m 0,0.03125 c 1.75798,0 3.28967,0.332702 4.59375,0.998047 1.30457,0.665598 2.28815,1.529797 2.95312,2.59375 0.69252,1.065413 1.19804,2.171384 1.51758,3.316407 0.3196,1.11858 0.48047,2.263668 0.48047,3.435546 0,0.958963 -0.0948,1.8913 -0.28125,2.796876 -0.15971,0.87839 -0.46513,1.79691 -0.91797,2.75586 -0.45256,0.93174 -1.03723,1.74354 -1.75586,2.43555 -0.71805,0.69146 -1.67653,1.26404 -2.875,1.71679 -1.19795,0.42594 -2.57004,0.63867 -4.11523,0.63867 -1.41163,0 -2.60777,-0.22561 -3.5918,-0.67773 l -0.0234,-0.0117 v 8.36914 H 130.4766 V 87.474609 h 3.69336 l 0.44336,1.41211 0.0195,-0.01563 c 0.55759,-0.504485 1.35408,-0.916789 2.39258,-1.236328 h 0.002 c 1.03876,-0.346252 1.98282,-0.519532 2.83399,-0.519532 z m -0.40039,4.847657 c -0.77554,0 -1.49718,0.161377 -2.16602,0.482421 -0.66818,0.32073 -1.15172,0.680964 -1.44726,1.083985 l -0.002,0.0039 v 8.494133 l 0.008,0.006 c 0.98915,0.64161 2.08426,0.96094 3.2871,0.96094 1.0153,0 1.87217,-0.18567 2.56836,-0.56055 0.72239,-0.37457 1.23236,-0.87149 1.52735,-1.48828 0.32016,-0.64033 0.53349,-1.226989 0.64062,-1.761712 v -0.002 c 0.13339,-0.534225 0.20118,-1.10885 0.20117,-1.722657 0,-0.5344 -0.0533,-1.054725 -0.16015,-1.5625 -0.10698,-0.534892 -0.30784,-1.122809 -0.60156,-1.763672 -0.26804,-0.643277 -0.73717,-1.166906 -1.40625,-1.568359 -0.66958,-0.401743 -1.487,-0.601562 -2.44922,-0.601562 z m 0,0.03125 c 0.95778,0 1.76788,0.199399 2.43164,0.597656 0.66424,0.398547 1.12923,0.916011 1.39453,1.552734 v 0.002 c 0.29294,0.639138 0.49325,1.224085 0.59961,1.75586 0.10643,0.505559 0.1582,1.024374 0.1582,1.55664 0,0.612174 -0.0662,1.184864 -0.19922,1.716797 -0.1063,0.531523 -0.31915,1.116812 -0.63867,1.755862 -0.29168,0.60988 -0.79606,1.10056 -1.51367,1.47266 -0.69047,0.37179 -1.54137,0.55859 -2.55274,0.55859 -1.19501,0 -2.28087,-0.31898 -3.26367,-0.95508 v -8.460938 c 0.29125,-0.396258 0.76751,-0.755435 1.43164,-1.074219 0.66449,-0.318955 1.38122,-0.478515 2.15235,-0.478515 z"
         id="path945" />
    </g>
    <g
       id="g947"
       style="font-size:40px;line-height:1.25;font-family:HalisGR-Bold;-inkscape-font-specification:HalisGR-Bold;fill:#808000;stroke:#000000;stroke-width:0.505774;stroke-linecap:round;stroke-opacity:1"
       transform="matrix(0.52312436,0,0,0.52312436,-90.085942,-78.226778)">
      <path
         style="color:#000000;font-style:normal;font-variant:normal;font-weight:normal;font-stretch:normal;font-size:medium;line-height:1.25;font-family:HalisGR-Bold;-inkscape-font-specification:HalisGR-Bold;font-variant-ligatures:normal;font-variant-position:normal;font-variant-caps:normal;font-variant-numeric:normal;font-variant-alternates:normal;font-variant-east-asian:normal;font-feature-settings:normal;font-variation-settings:normal;text-indent:0;text-align:start;text-decoration:none;text-decoration-line:none;text-decoration-style:solid;text-decoration-color:#000000;letter-spacing:normal;word-spacing:normal;text-transform:none;writing-mode:lr-tb;direction:ltr;text-orientation:mixed;dominant-baseline:auto;baseline-shift:baseline;text-anchor:start;white-space:normal;shape-padding:0;shape-margin:0;inline-size:0;clip-rule:nonzero;display:inline;overflow:visible;visibility:visible;isolation:auto;mix-blend-mode:normal;color-interpolation:sRGB;color-interpolation-filters:linearRGB;solid-color:#000000;solid-opacity:1;vector-effect:none;fill:#97aacb;fill-opacity:1;fill-rule:nonzero;stroke:none;stroke-width:0;stroke-linecap:round;stroke-linejoin:miter;stroke-miterlimit:4;stroke-dasharray:none;stroke-dashoffset:0;stroke-opacity:1;color-rendering:auto;image-rendering:auto;shape-rendering:auto;text-rendering:auto;enable-background:accumulate;stop-color:#000000;stop-opacity:1"
         d="m 154.30143,92.299039 h -2.08 v -4.8 h 2.08 l 0.4,-3.92 h 5.04 v 3.92 h 3.76 v 4.8 h -3.76 v 9.400001 c 0,0.85333 0.37333,1.28 1.12,1.28 0.29333,0 1.24,-0.2 2.84,-0.6 l 0.92,4.4 c -2.21333,0.64 -4.06667,0.96 -5.56,0.96 -1.01333,0 -1.86667,-0.2 -2.56,-0.6 -0.69333,-0.42667 -1.18667,-0.96 -1.48,-1.6 -0.29333,-0.66667 -0.49333,-1.24 -0.6,-1.72 -0.08,-0.50667 -0.12,-1.01333 -0.12,-1.52 z"
         id="path949" />
      <path
         style="color:#000000;font-style:normal;font-variant:normal;font-weight:normal;font-stretch:normal;font-size:medium;line-height:1.25;font-family:HalisGR-Bold;-inkscape-font-specification:HalisGR-Bold;font-variant-ligatures:normal;font-variant-position:normal;font-variant-caps:normal;font-variant-numeric:normal;font-variant-alternates:normal;font-variant-east-asian:normal;font-feature-settings:normal;font-variation-settings:normal;text-indent:0;text-align:start;text-decoration:none;text-decoration-line:none;text-decoration-style:solid;text-decoration-color:#000000;letter-spacing:normal;word-spacing:normal;text-transform:none;writing-mode:lr-tb;direction:ltr;text-orientation:mixed;dominant-baseline:auto;baseline-shift:baseline;text-anchor:start;white-space:normal;shape-padding:0;shape-margin:0;inline-size:0;clip-rule:nonzero;display:inline;overflow:visible;visibility:visible;isolation:auto;mix-blend-mode:normal;color-interpolation:sRGB;color-interpolation-filters:linearRGB;solid-color:#000000;solid-opacity:1;vector-effect:none;fill:#000000;fill-opacity:1;fill-rule:nonzero;stroke:none;stroke-width:0;stroke-linecap:round;stroke-linejoin:miter;stroke-miterlimit:4;stroke-dasharray:none;stroke-dashoffset:0;stroke-opacity:1;color-rendering:auto;image-rendering:auto;shape-rendering:auto;text-rendering:auto;enable-background:accumulate;stop-color:#000000;stop-opacity:1"
         d="m 154.6875,83.5625 -0.40039,3.919922 h -2.08203 v 4.832031 h 2.08008 v 9.984377 c 0,0.50751 0.041,1.01596 0.12109,1.52344 0.107,0.4815 0.30599,1.05534 0.59961,1.72265 h 0.002 c 0.29476,0.64312 0.78886,1.17941 1.48438,1.60742 h 0.002 c 0.69626,0.40169 1.55097,0.60352 2.56641,0.60352 1.49562,0 3.35019,-0.32067 5.56445,-0.96094 l 0.0156,-0.004 -0.92773,-4.43164 -0.0156,0.004 c -0.79989,0.19997 -1.4352,0.34929 -1.90821,0.44922 -0.473,0.0999 -0.7847,0.15039 -0.92773,0.15039 -0.37029,0 -0.64494,-0.1051 -0.82813,-0.31445 -0.18318,-0.20936 -0.27539,-0.52489 -0.27539,-0.94922 v -9.384767 h 3.75977 v -4.832031 h -3.75977 V 83.5625 Z m 0.0293,0.0332 h 5.00781 v 3.919922 h 3.76172 V 92.2832 h -3.76172 v 9.41602 c 0,0.429 0.095,0.75339 0.28516,0.9707 0.19014,0.21731 0.47518,0.32422 0.85156,0.32422 0.1503,0 0.45993,-0.0503 0.93359,-0.15039 0.46977,-0.0992 1.10365,-0.24774 1.89453,-0.44531 l 0.91211,4.36718 c -2.20423,0.63617 -4.05412,0.95704 -5.54101,0.95704 -1.01123,0 -1.86037,-0.19935 -2.55078,-0.59766 -0.69115,-0.42532 -1.18271,-0.95491 -1.47461,-1.5918 -0.29305,-0.66602 -0.49133,-1.23829 -0.59766,-1.71679 -0.0799,-0.50586 -0.11914,-1.01176 -0.11914,-1.51758 V 92.283203 h -0.0176 -2.0625 v -4.767578 h 2.07813 z"
         id="path951" />
    </g>
    <g
       id="g953"
       style="font-size:40px;line-height:1.25;font-family:HalisGR-Bold;-inkscape-font-specification:HalisGR-Bold;fill:#808000;stroke:#000000;stroke-width:0.505774;stroke-linecap:round;stroke-opacity:1;filter:url(#filter1890)"
       transform="matrix(0.52312436,0,0,0.52312436,-89.493862,-78.226778)">
      <path
         style="color:#000000;font-style:normal;font-variant:normal;font-weight:normal;font-stretch:normal;font-size:medium;line-height:1.25;font-family:HalisGR-Bold;-inkscape-font-specification:HalisGR-Bold;font-variant-ligatures:normal;font-variant-position:normal;font-variant-caps:normal;font-variant-numeric:normal;font-variant-alternates:normal;font-variant-east-asian:normal;font-feature-settings:normal;font-variation-settings:normal;text-indent:0;text-align:start;text-decoration:none;text-decoration-line:none;text-decoration-style:solid;text-decoration-color:#000000;letter-spacing:normal;word-spacing:normal;text-transform:none;writing-mode:lr-tb;direction:ltr;text-orientation:mixed;dominant-baseline:auto;baseline-shift:baseline;text-anchor:start;white-space:normal;shape-padding:0;shape-margin:0;inline-size:0;clip-rule:nonzero;display:inline;overflow:visible;visibility:visible;isolation:auto;mix-blend-mode:normal;color-interpolation:sRGB;color-interpolation-filters:linearRGB;solid-color:#000000;solid-opacity:1;vector-effect:none;fill:#97aacb;fill-opacity:1;fill-rule:nonzero;stroke:none;stroke-width:0;stroke-linecap:round;stroke-linejoin:miter;stroke-miterlimit:4;stroke-dasharray:none;stroke-dashoffset:0;stroke-opacity:1;color-rendering:auto;image-rendering:auto;shape-rendering:auto;text-rendering:auto;enable-background:accumulate;stop-color:#000000;stop-opacity:1"
         d="m 173.98143,87.499039 v 20.000001 h -5.44 V 87.499039 Z m -5.76,-6.52 c 0,-0.853333 0.29333,-1.573333 0.88,-2.16 0.58667,-0.613333 1.32,-0.92 2.2,-0.92 0.85333,0 1.57333,0.306667 2.16,0.92 0.58667,0.586667 0.88,1.306667 0.88,2.16 0,0.88 -0.29333,1.613333 -0.88,2.2 -0.58667,0.56 -1.30667,0.84 -2.16,0.84 -0.88,0 -1.61333,-0.28 -2.2,-0.84 -0.58667,-0.586667 -0.88,-1.32 -0.88,-2.2 z"
         id="path955" />
      <path
         style="color:#000000;font-style:normal;font-variant:normal;font-weight:normal;font-stretch:normal;font-size:medium;line-height:1.25;font-family:HalisGR-Bold;-inkscape-font-specification:HalisGR-Bold;font-variant-ligatures:normal;font-variant-position:normal;font-variant-caps:normal;font-variant-numeric:normal;font-variant-alternates:normal;font-variant-east-asian:normal;font-feature-settings:normal;font-variation-settings:normal;text-indent:0;text-align:start;text-decoration:none;text-decoration-line:none;text-decoration-style:solid;text-decoration-color:#000000;letter-spacing:normal;word-spacing:normal;text-transform:none;writing-mode:lr-tb;direction:ltr;text-orientation:mixed;dominant-baseline:auto;baseline-shift:baseline;text-anchor:start;white-space:normal;shape-padding:0;shape-margin:0;inline-size:0;clip-rule:nonzero;display:inline;overflow:visible;visibility:visible;isolation:auto;mix-blend-mode:normal;color-interpolation:sRGB;color-interpolation-filters:linearRGB;solid-color:#000000;solid-opacity:1;vector-effect:none;fill:#000000;fill-opacity:1;fill-rule:nonzero;stroke:none;stroke-width:0;stroke-linecap:round;stroke-linejoin:miter;stroke-miterlimit:4;stroke-dasharray:none;stroke-dashoffset:0;stroke-opacity:1;color-rendering:auto;image-rendering:auto;shape-rendering:auto;text-rendering:auto;enable-background:accumulate;stop-color:#000000;stop-opacity:1"
         d="m 171.30078,77.882812 c -0.88372,0 -1.62151,0.309561 -2.21094,0.925782 -0.58941,0.589409 -0.88476,1.312922 -0.88476,2.169922 0,0.883555 0.29527,1.621442 0.88476,2.210937 v 0.002 c 0.58956,0.562759 1.32755,0.84375 2.21094,0.84375 0.85683,0 1.58241,-0.281074 2.17188,-0.84375 v -0.002 c 0.58949,-0.589495 0.88476,-1.327382 0.88476,-2.210937 0,-0.857 -0.29535,-1.580513 -0.88476,-2.169922 -0.58935,-0.616134 -1.31471,-0.925782 -2.17188,-0.925782 z m 0,0.03125 c 0.8495,0 1.56445,0.305483 2.14844,0.916016 0.58392,0.583924 0.87695,1.298771 0.87695,2.148438 0,0.876444 -0.29311,1.605615 -0.87695,2.189453 -0.58361,0.556445 -1.29928,0.835937 -2.14844,0.835937 -0.8766,0 -1.60372,-0.278696 -2.1875,-0.835937 -0.58384,-0.583838 -0.875,-1.313009 -0.875,-2.189453 0,-0.849667 0.29108,-1.564514 0.875,-2.148438 0.58391,-0.610445 1.31122,-0.916015 2.1875,-0.916016 z m -2.77539,9.56836 v 20.033198 h 5.47266 V 87.482422 h -0.0176 z m 0.0312,0.0332 h 5.4082 v 19.966798 h -5.4082 z"
         id="path957" />
    </g>
    <g
       id="g959"
       style="font-size:40px;line-height:1.25;font-family:HalisGR-Bold;-inkscape-font-specification:HalisGR-Bold;fill:#808000;stroke:#000000;stroke-width:0.506572;stroke-linecap:round;stroke-miterlimit:4;stroke-dasharray:none;stroke-opacity:1;filter:url(#filter1894)"
       transform="matrix(0.52312436,0,0,0.52312436,-90.294904,-78.226778)">
      <path
         style="color:#000000;font-style:normal;font-variant:normal;font-weight:normal;font-stretch:normal;font-size:medium;line-height:1.25;font-family:HalisGR-Bold;-inkscape-font-specification:HalisGR-Bold;font-variant-ligatures:normal;font-variant-position:normal;font-variant-caps:normal;font-variant-numeric:normal;font-variant-alternates:normal;font-variant-east-asian:normal;font-feature-settings:normal;font-variation-settings:normal;text-indent:0;text-align:start;text-decoration:none;text-decoration-line:none;text-decoration-style:solid;text-decoration-color:#000000;letter-spacing:normal;word-spacing:normal;text-transform:none;writing-mode:lr-tb;direction:ltr;text-orientation:mixed;dominant-baseline:auto;baseline-shift:baseline;text-anchor:start;white-space:normal;shape-padding:0;shape-margin:0;inline-size:0;clip-rule:nonzero;display:inline;overflow:visible;visibility:visible;isolation:auto;mix-blend-mode:normal;color-interpolation:sRGB;color-interpolation-filters:linearRGB;solid-color:#000000;solid-opacity:1;vector-effect:none;fill:#97aacb;fill-opacity:1;fill-rule:nonzero;stroke:none;stroke-width:0.506572;stroke-linecap:round;stroke-linejoin:miter;stroke-miterlimit:4;stroke-dasharray:none;stroke-dashoffset:0;stroke-opacity:1;color-rendering:auto;image-rendering:auto;shape-rendering:auto;text-rendering:auto;enable-background:accumulate;stop-color:#000000;stop-opacity:1"
         d="m 186.14142,93.739039 v 13.760001 h -5.4 V 87.499039 h 3.68 l 0.48,1.52 c 1.44,-1.226667 3.12,-1.84 5.04,-1.84 2.66667,0 4.62667,0.666667 5.88,2 1.70667,-1.333333 3.57333,-2 5.6,-2 1.06667,0 2.01333,0.106667 2.84,0.32 0.82667,0.213333 1.50667,0.493333 2.04,0.84 0.56,0.32 1.04,0.76 1.44,1.32 0.4,0.56 0.69333,1.093333 0.88,1.6 0.21333,0.506667 0.37333,1.146667 0.48,1.92 0.10667,0.746667 0.17333,1.4 0.2,1.96 0.0267,0.533333 0.04,1.213333 0.04,2.04 v 10.320001 h -5.52 V 96.659039 c 0,-0.693333 -0.0133,-1.24 -0.04,-1.64 -0.0267,-0.426667 -0.12,-0.906667 -0.28,-1.44 -0.13333,-0.533333 -0.4,-0.933333 -0.8,-1.2 -0.37333,-0.266667 -0.86667,-0.4 -1.48,-0.4 -1.36,0 -2.49333,0.573333 -3.4,1.72 v 13.800001 h -5.48 V 96.659039 c 0,-0.693333 -0.0133,-1.24 -0.04,-1.64 -0.0267,-0.426667 -0.12,-0.906667 -0.28,-1.44 -0.13333,-0.533333 -0.4,-0.933333 -0.8,-1.2 -0.37333,-0.266667 -0.86667,-0.4 -1.48,-0.4 -1.54667,0 -2.74667,0.586667 -3.6,1.76 z"
         id="path961" />
      <path
         style="color:#000000;font-style:normal;font-variant:normal;font-weight:normal;font-stretch:normal;font-size:medium;line-height:1.25;font-family:HalisGR-Bold;-inkscape-font-specification:HalisGR-Bold;font-variant-ligatures:normal;font-variant-position:normal;font-variant-caps:normal;font-variant-numeric:normal;font-variant-alternates:normal;font-variant-east-asian:normal;font-feature-settings:normal;font-variation-settings:normal;text-indent:0;text-align:start;text-decoration:none;text-decoration-line:none;text-decoration-style:solid;text-decoration-color:#000000;letter-spacing:normal;word-spacing:normal;text-transform:none;writing-mode:lr-tb;direction:ltr;text-orientation:mixed;dominant-baseline:auto;baseline-shift:baseline;text-anchor:start;white-space:normal;shape-padding:0;shape-margin:0;inline-size:0;clip-rule:nonzero;display:inline;overflow:visible;visibility:visible;isolation:auto;mix-blend-mode:normal;color-interpolation:sRGB;color-interpolation-filters:linearRGB;solid-color:#000000;solid-opacity:1;vector-effect:none;fill:#000000;fill-opacity:1;fill-rule:nonzero;stroke:none;stroke-width:0.506572;stroke-linecap:round;stroke-linejoin:miter;stroke-miterlimit:4;stroke-dasharray:none;stroke-dashoffset:0;stroke-opacity:1;color-rendering:auto;image-rendering:auto;shape-rendering:auto;text-rendering:auto;enable-background:accumulate;stop-color:#000000;stop-opacity:1"
         d="m 189.94141,87.162109 c -1.91537,0 -3.5926,0.615297 -5.03125,1.833985 l -0.47657,-1.513672 h -3.70898 v 20.033198 h 5.43359 V 93.744141 c 0.85041,-1.166424 2.04347,-1.75 3.58399,-1.75 0.61101,0 1.10074,0.134179 1.4707,0.398437 0.39659,0.264391 0.6604,0.659164 0.79297,1.189453 v 0.002 c 0.15973,0.532443 0.25273,1.010455 0.2793,1.435547 0.0266,0.399388 0.041,0.945544 0.041,1.638672 v 10.85742 h 5.51172 V 93.705078 c 0.90362,-1.140456 2.02918,-1.710937 3.38281,-1.710937 0.61102,0 1.10075,0.134179 1.47071,0.398437 h 0.002 c 0.39659,0.264391 0.6604,0.659164 0.79297,1.189453 v 0.002 c 0.15973,0.532443 0.25273,1.010455 0.27929,1.435547 0.0266,0.399388 0.0391,0.945544 0.0391,1.638672 v 10.85742 h 5.55273 V 97.179688 c 0,-0.826839 -0.0124,-1.507271 -0.0391,-2.041016 -0.0267,-0.560675 -0.0945,-1.213901 -0.20117,-1.960938 -0.1067,-0.773555 -0.26669,-1.415589 -0.48047,-1.923828 v -0.002 c -0.18731,-0.507925 -0.48255,-1.041187 -0.88281,-1.601562 -0.40065,-0.560911 -0.88231,-1.003152 -1.44336,-1.324219 l -0.002,-0.002 c -0.53496,-0.347352 -1.21603,-0.626441 -2.04297,-0.839844 -0.82827,-0.213749 -1.77601,-0.322266 -2.84374,-0.322266 -2.02642,0 -3.89309,0.667758 -5.59961,1.998047 -1.2576,-1.33085 -3.21813,-1.998047 -5.88086,-1.998047 z m 0,0.0332 c 2.664,0 4.61968,0.664934 5.86914,1.994141 l 0.01,0.01172 0.0117,-0.0098 c 1.70425,-1.331441 3.56669,-1.996094 5.58985,-1.996094 1.06559,0 2.01088,0.105443 2.83593,0.31836 0.82544,0.213017 1.50374,0.492465 2.03516,0.83789 v 0.002 c 0.55793,0.318819 1.03676,0.756154 1.43555,1.314453 0.39935,0.5591 0.6909,1.090721 0.87695,1.595703 l 0.002,0.002 c 0.21258,0.504862 0.37198,1.143644 0.47852,1.916016 0.10661,0.746297 0.17258,1.399659 0.19922,1.958984 0.0266,0.532922 0.041,1.212568 0.041,2.039063 v 10.302735 h -5.48828 V 96.658203 c 0,-0.693538 -0.0143,-1.240013 -0.041,-1.640625 -0.0268,-0.428241 -0.11903,-0.909135 -0.2793,-1.443359 -0.1341,-0.536377 -0.40323,-0.940042 -0.80664,-1.208985 -0.37671,-0.269075 -0.87458,-0.402343 -1.49024,-0.402343 -1.36449,0 -2.50303,0.576842 -3.41211,1.726562 l -0.004,0.0039 v 13.789057 h -5.44727 V 96.658203 c 0,-0.693538 -0.0123,-1.240013 -0.0391,-1.640625 -0.0268,-0.428241 -0.12098,-0.909135 -0.28125,-1.443359 -0.13409,-0.536377 -0.40323,-0.940042 -0.80664,-1.208985 -0.37671,-0.269075 -0.87263,-0.402343 -1.48828,-0.402343 -1.55072,0 -2.75725,0.590526 -3.61328,1.767578 l -0.004,0.0039 v 0.0039 13.744141 h -5.36719 V 87.515625 h 3.65235 l 0.48242,1.53125 0.0195,-0.01563 c 1.43733,-1.22439 3.1127,-1.835938 5.0293,-1.835938 z"
         id="path963" />
    </g>
    <g
       id="g965"
       style="font-size:40px;line-height:1.25;font-family:HalisGR-Bold;-inkscape-font-specification:HalisGR-Bold;fill:#808000;stroke:#000000;stroke-width:0.505774;stroke-linecap:round;stroke-opacity:1;filter:url(#filter1898)"
       transform="matrix(0.52312436,0,0,0.52312436,-90.678022,-78.226778)">
      <path
         style="color:#000000;font-style:normal;font-variant:normal;font-weight:normal;font-stretch:normal;font-size:medium;line-height:1.25;font-family:HalisGR-Bold;-inkscape-font-specification:HalisGR-Bold;font-variant-ligatures:normal;font-variant-position:normal;font-variant-caps:normal;font-variant-numeric:normal;font-variant-alternates:normal;font-variant-east-asian:normal;font-feature-settings:normal;font-variation-settings:normal;text-indent:0;text-align:start;text-decoration:none;text-decoration-line:none;text-decoration-style:solid;text-decoration-color:#000000;letter-spacing:normal;word-spacing:normal;text-transform:none;writing-mode:lr-tb;direction:ltr;text-orientation:mixed;dominant-baseline:auto;baseline-shift:baseline;text-anchor:start;white-space:normal;shape-padding:0;shape-margin:0;inline-size:0;clip-rule:nonzero;display:inline;overflow:visible;visibility:visible;isolation:auto;mix-blend-mode:normal;color-interpolation:sRGB;color-interpolation-filters:linearRGB;solid-color:#000000;solid-opacity:1;vector-effect:none;fill:#97aacb;fill-opacity:1;fill-rule:nonzero;stroke:none;stroke-width:0;stroke-linecap:round;stroke-linejoin:miter;stroke-miterlimit:4;stroke-dasharray:none;stroke-dashoffset:0;stroke-opacity:1;color-rendering:auto;image-rendering:auto;shape-rendering:auto;text-rendering:auto;enable-background:accumulate;stop-color:#000000;stop-opacity:1"
         d="m 220.7014,87.499039 v 20.000001 h -5.44 V 87.499039 Z m -5.76,-6.52 c 0,-0.853333 0.29333,-1.573333 0.88,-2.16 0.58667,-0.613333 1.32,-0.92 2.2,-0.92 0.85333,0 1.57333,0.306667 2.16,0.92 0.58667,0.586667 0.88,1.306667 0.88,2.16 0,0.88 -0.29333,1.613333 -0.88,2.2 -0.58667,0.56 -1.30667,0.84 -2.16,0.84 -0.88,0 -1.61333,-0.28 -2.2,-0.84 -0.58667,-0.586667 -0.88,-1.32 -0.88,-2.2 z"
         id="path967" />
      <path
         style="color:#000000;font-style:normal;font-variant:normal;font-weight:normal;font-stretch:normal;font-size:medium;line-height:1.25;font-family:HalisGR-Bold;-inkscape-font-specification:HalisGR-Bold;font-variant-ligatures:normal;font-variant-position:normal;font-variant-caps:normal;font-variant-numeric:normal;font-variant-alternates:normal;font-variant-east-asian:normal;font-feature-settings:normal;font-variation-settings:normal;text-indent:0;text-align:start;text-decoration:none;text-decoration-line:none;text-decoration-style:solid;text-decoration-color:#000000;letter-spacing:normal;word-spacing:normal;text-transform:none;writing-mode:lr-tb;direction:ltr;text-orientation:mixed;dominant-baseline:auto;baseline-shift:baseline;text-anchor:start;white-space:normal;shape-padding:0;shape-margin:0;inline-size:0;clip-rule:nonzero;display:inline;overflow:visible;visibility:visible;isolation:auto;mix-blend-mode:normal;color-interpolation:sRGB;color-interpolation-filters:linearRGB;solid-color:#000000;solid-opacity:1;vector-effect:none;fill:#000000;fill-opacity:1;fill-rule:nonzero;stroke:none;stroke-width:0;stroke-linecap:round;stroke-linejoin:miter;stroke-miterlimit:4;stroke-dasharray:none;stroke-dashoffset:0;stroke-opacity:1;color-rendering:auto;image-rendering:auto;shape-rendering:auto;text-rendering:auto;enable-background:accumulate;stop-color:#000000;stop-opacity:1"
         d="m 218.02148,77.882812 c -0.88371,0 -1.6215,0.309561 -2.21093,0.925782 -0.58941,0.589409 -0.88477,1.312922 -0.88477,2.169922 0,0.883555 0.29527,1.621442 0.88477,2.210937 v 0.002 c 0.58955,0.562759 1.32754,0.84375 2.21093,0.84375 0.85684,0 1.58241,-0.281074 2.17188,-0.84375 v -0.002 c 0.58949,-0.589495 0.88477,-1.327382 0.88476,-2.210937 10e-6,-0.857 -0.29535,-1.580513 -0.88476,-2.169922 -0.58935,-0.616134 -1.31471,-0.925782 -2.17188,-0.925782 z m 0,0.03125 c 0.8495,0 1.56445,0.305483 2.14844,0.916016 0.58393,0.583924 0.875,1.298771 0.875,2.148438 0,0.876444 -0.29116,1.605615 -0.875,2.189453 -0.58386,0.557324 -1.2986,0.835937 -2.14844,0.835937 -0.8766,0 -1.60567,-0.278696 -2.18945,-0.835937 -0.58384,-0.583838 -0.875,-1.313009 -0.875,-2.189453 0,-0.849667 0.29108,-1.564514 0.875,-2.148438 0.58391,-0.610445 1.31317,-0.916015 2.18945,-0.916016 z m -2.77539,9.56836 v 20.033198 h 5.47071 V 87.482422 h -0.0156 z m 0.0312,0.0332 h 5.40821 v 19.966798 h -5.40821 z"
         id="path969" />
    </g>
    <g
       id="g971"
       style="font-size:40px;line-height:1.25;font-family:HalisGR-Bold;-inkscape-font-specification:HalisGR-Bold;fill:#808000;stroke:#000000;stroke-width:0.505774;stroke-linecap:round;stroke-opacity:1"
       transform="matrix(0.52312436,0,0,0.52312436,-91.862181,-78.226778)">
      <path
         style="color:#000000;font-style:normal;font-variant:normal;font-weight:normal;font-stretch:normal;font-size:medium;line-height:1.25;font-family:HalisGR-Bold;-inkscape-font-specification:HalisGR-Bold;font-variant-ligatures:normal;font-variant-position:normal;font-variant-caps:normal;font-variant-numeric:normal;font-variant-alternates:normal;font-variant-east-asian:normal;font-feature-settings:normal;font-variation-settings:normal;text-indent:0;text-align:start;text-decoration:none;text-decoration-line:none;text-decoration-style:solid;text-decoration-color:#000000;letter-spacing:normal;word-spacing:normal;text-transform:none;writing-mode:lr-tb;direction:ltr;text-orientation:mixed;dominant-baseline:auto;baseline-shift:baseline;text-anchor:start;white-space:normal;shape-padding:0;shape-margin:0;inline-size:0;clip-rule:nonzero;display:inline;overflow:visible;visibility:visible;isolation:auto;mix-blend-mode:normal;color-interpolation:sRGB;color-interpolation-filters:linearRGB;solid-color:#000000;solid-opacity:1;vector-effect:none;fill:#97aacb;fill-opacity:1;fill-rule:nonzero;stroke:none;stroke-width:0;stroke-linecap:round;stroke-linejoin:miter;stroke-miterlimit:4;stroke-dasharray:none;stroke-dashoffset:0;stroke-opacity:1;color-rendering:auto;image-rendering:auto;shape-rendering:auto;text-rendering:auto;enable-background:accumulate;stop-color:#000000;stop-opacity:1"
         d="m 232.54139,93.219039 c 0,0.506667 0.98667,1.066667 2.96,1.68 0.82667,0.266667 1.45333,0.48 1.88,0.64 0.45333,0.16 1.04,0.44 1.76,0.84 0.74667,0.4 1.30667,0.813333 1.68,1.24 0.4,0.426667 0.74667,1 1.04,1.72 0.32,0.693331 0.48,1.480001 0.48,2.360001 0,1.81333 -0.70667,3.29333 -2.12,4.44 -1.41333,1.12 -3.21333,1.68 -5.4,1.68 -2.66667,0 -5.38667,-0.81333 -8.16,-2.44 l 2.16,-4.24 c 2.4,1.22667 4.33333,1.84 5.8,1.84 0.61333,0 1.13333,-0.10667 1.56,-0.32 0.42667,-0.24 0.64,-0.54667 0.64,-0.92 0,-0.53333 -0.28,-0.94667 -0.84,-1.24 -0.53333,-0.29333 -1.36,-0.6 -2.48,-0.920001 -0.93333,-0.293333 -1.68,-0.546667 -2.24,-0.76 -0.53333,-0.24 -1.16,-0.586667 -1.88,-1.04 -0.69333,-0.48 -1.21333,-1.08 -1.56,-1.8 -0.34667,-0.746667 -0.52,-1.613333 -0.52,-2.6 0,-1.92 0.61333,-3.426667 1.84,-4.52 1.25333,-1.12 2.90667,-1.68 4.96,-1.68 2.37333,0 4.96,0.693333 7.76,2.08 l -2.04,4.44 c -2.13333,-1.04 -3.82667,-1.56 -5.08,-1.56 -1.46667,0 -2.2,0.36 -2.2,1.08 z"
         id="path973" />
      <path
         style="color:#000000;font-style:normal;font-variant:normal;font-weight:normal;font-stretch:normal;font-size:medium;line-height:1.25;font-family:HalisGR-Bold;-inkscape-font-specification:HalisGR-Bold;font-variant-ligatures:normal;font-variant-position:normal;font-variant-caps:normal;font-variant-numeric:normal;font-variant-alternates:normal;font-variant-east-asian:normal;font-feature-settings:normal;font-variation-settings:normal;text-indent:0;text-align:start;text-decoration:none;text-decoration-line:none;text-decoration-style:solid;text-decoration-color:#000000;letter-spacing:normal;word-spacing:normal;text-transform:none;writing-mode:lr-tb;direction:ltr;text-orientation:mixed;dominant-baseline:auto;baseline-shift:baseline;text-anchor:start;white-space:normal;shape-padding:0;shape-margin:0;inline-size:0;clip-rule:nonzero;display:inline;overflow:visible;visibility:visible;isolation:auto;mix-blend-mode:normal;color-interpolation:sRGB;color-interpolation-filters:linearRGB;solid-color:#000000;solid-opacity:1;vector-effect:none;fill:#000000;fill-opacity:1;fill-rule:nonzero;stroke:none;stroke-width:0;stroke-linecap:round;stroke-linejoin:miter;stroke-miterlimit:4;stroke-dasharray:none;stroke-dashoffset:0;stroke-opacity:1;color-rendering:auto;image-rendering:auto;shape-rendering:auto;text-rendering:auto;enable-background:accumulate;stop-color:#000000;stop-opacity:1"
         d="m 234.10156,87.162109 c -2.05624,0 -3.71413,0.562655 -4.9707,1.685547 -1.23014,1.096429 -1.8457,2.607843 -1.8457,4.53125 0,0.988541 0.17368,1.858314 0.52148,2.607422 0.34787,0.722504 0.87102,1.32522 1.56641,1.806641 0.72043,0.453604 1.34654,0.800574 1.88086,1.041015 h 0.002 c 0.56048,0.213518 1.30672,0.466374 2.24023,0.759766 1.11941,0.31983 1.94718,0.62768 2.47852,0.91992 0.55647,0.29149 0.83008,0.69688 0.83008,1.22461 0,0.36724 -0.20728,0.66799 -0.63086,0.90625 -0.42393,0.21196 -0.94126,0.31836 -1.55274,0.31836 -1.4622,0 -3.39414,-0.61182 -5.79297,-1.83789 l -0.0137,-0.008 -2.17383,4.26758 0.0117,0.008 c 2.77527,1.6278 5.50001,2.44336 8.16993,2.44336 2.18939,0 3.99172,-0.5611 5.4082,-1.6836 h 0.002 c 1.41654,-1.14926 2.125,-2.63563 2.125,-4.45312 0,-0.88194 -0.16134,-1.67152 -0.48242,-2.367189 h 0.002 c -0.29363,-0.720732 -0.64165,-1.294249 -1.04297,-1.722656 -0.37518,-0.42878 -0.93777,-0.843547 -1.68554,-1.244141 -0.72046,-0.400252 -1.30695,-0.681289 -1.76172,-0.841796 -0.42711,-0.160167 -1.05407,-0.371966 -1.88086,-0.638672 v -0.002 c -0.98607,-0.306481 -1.72527,-0.597975 -2.2168,-0.876953 -0.24576,-0.139488 -0.42916,-0.276723 -0.55078,-0.408203 -0.12162,-0.131479 -0.18164,-0.257432 -0.18164,-0.378906 0,-0.354568 0.17814,-0.616781 0.54102,-0.794922 0.36288,-0.17814 0.9125,-0.269531 1.64453,-0.269531 1.24891,0 2.94004,0.519134 5.07226,1.558594 l 0.0137,0.0078 2.05469,-4.46875 -0.0137,-0.0078 c -2.80161,-1.387465 -5.39113,-2.082032 -7.76758,-2.082032 z m 0,0.0332 c 2.36615,0 4.94544,0.691155 7.73828,2.072266 l -2.02734,4.41211 c -2.12634,-1.034956 -3.81594,-1.556641 -5.07031,-1.556641 -0.73464,0 -1.28775,0.08962 -1.65821,0.271484 -0.37045,0.18186 -0.55859,0.458787 -0.55859,0.824219 0,0.13186 0.0644,0.265203 0.18945,0.400391 0.12505,0.135187 0.31103,0.273551 0.5586,0.414062 0.49513,0.281023 1.23539,0.574008 2.22265,0.880859 0.82655,0.266627 1.45269,0.480792 1.87891,0.640626 h 0.002 c 0.4519,0.159492 1.03632,0.438143 1.75586,0.83789 h 0.002 c 0.74555,0.399406 1.30234,0.811775 1.67382,1.236328 l 0.002,0.002 c 0.39826,0.424815 0.74236,0.996175 1.03515,1.714844 h 0.002 c 0.31892,0.690993 0.47851,1.475453 0.47851,2.353513 0,1.80918 -0.7051,3.28367 -2.11523,4.42773 -1.41019,1.11751 -3.20474,1.67578 -5.38867,1.67578 -2.65902,0 -5.37203,-0.81147 -8.13868,-2.43164 l 2.14649,-4.21289 c 2.39332,1.22149 4.32336,1.83594 5.79101,1.83594 0.61519,0 1.13895,-0.10561 1.56836,-0.32031 0.42976,-0.24174 0.64844,-0.55612 0.64844,-0.93555 0,-0.53893 -0.28608,-0.95872 -0.84961,-1.2539 -0.53532,-0.29443 -1.36182,-0.599752 -2.48242,-0.919923 -0.93315,-0.293275 -1.67877,-0.546616 -2.23828,-0.759765 -0.53235,-0.239559 -1.15739,-0.586 -1.87696,-1.039063 -0.69128,-0.478579 -1.20922,-1.075473 -1.55468,-1.792969 -0.34554,-0.744225 -0.51758,-1.608957 -0.51758,-2.59375 0,-1.916592 0.61079,-3.417574 1.83398,-4.507812 1.2501,-1.117108 2.8988,-1.675782 4.94922,-1.675782 z"
         id="path975" />
    </g>
    <g
       id="g977"
       style="font-size:40px;line-height:1.25;font-family:HalisGR-Bold;-inkscape-font-specification:HalisGR-Bold;fill:#808000;stroke:#000000;stroke-width:0.505774;stroke-linecap:round;stroke-opacity:1"
       transform="matrix(0.52312436,0,0,0.52312436,-93.04634,-78.184887)">
      <path
         style="color:#000000;font-style:normal;font-variant:normal;font-weight:normal;font-stretch:normal;font-size:medium;line-height:1.25;font-family:HalisGR-Bold;-inkscape-font-specification:HalisGR-Bold;font-variant-ligatures:normal;font-variant-position:normal;font-variant-caps:normal;font-variant-numeric:normal;font-variant-alternates:normal;font-variant-east-asian:normal;font-feature-settings:normal;font-variation-settings:normal;text-indent:0;text-align:start;text-decoration:none;text-decoration-line:none;text-decoration-style:solid;text-decoration-color:#000000;letter-spacing:normal;word-spacing:normal;text-transform:none;writing-mode:lr-tb;direction:ltr;text-orientation:mixed;dominant-baseline:auto;baseline-shift:baseline;text-anchor:start;white-space:normal;shape-padding:0;shape-margin:0;inline-size:0;clip-rule:nonzero;display:inline;overflow:visible;visibility:visible;isolation:auto;mix-blend-mode:normal;color-interpolation:sRGB;color-interpolation-filters:linearRGB;solid-color:#000000;solid-opacity:1;vector-effect:none;fill:#97aacb;fill-opacity:1;fill-rule:nonzero;stroke:none;stroke-width:0;stroke-linecap:round;stroke-linejoin:miter;stroke-miterlimit:4;stroke-dasharray:none;stroke-dashoffset:0;stroke-opacity:1;color-rendering:auto;image-rendering:auto;shape-rendering:auto;text-rendering:auto;enable-background:accumulate;stop-color:#000000;stop-opacity:1"
         d="m 264.66136,98.419039 h -12.52 c 0.16,1.253334 0.62667,2.306671 1.4,3.160001 0.77333,0.82667 1.77333,1.24 3,1.24 1.76,0 3.42667,-0.6 5,-1.8 l 2.64,3.64 c -2.45333,2.05333 -5,3.08 -7.64,3.08 -1.81333,0 -3.4,-0.32 -4.76,-0.96 -1.36,-0.66667 -2.4,-1.52 -3.12,-2.56 -0.72,-1.06667 -1.25333,-2.16 -1.6,-3.28 -0.34667,-1.146667 -0.52,-2.306668 -0.52,-3.480001 0,-1.146667 0.17333,-2.28 0.52,-3.4 0.34667,-1.12 0.88,-2.213333 1.6,-3.28 0.72,-1.066667 1.76,-1.92 3.12,-2.56 1.36,-0.666667 2.94667,-1 4.76,-1 2.61333,0 4.64,0.773333 6.08,2.32 1.46667,1.546667 2.2,3.64 2.2,6.28 0,0.56 -0.0533,1.426667 -0.16,2.6 z m -8.12,-6.36 c -2.13333,0 -3.54667,1.053333 -4.24,3.16 h 7.16 c -0.0533,-2.08 -1.02667,-3.133333 -2.92,-3.16 z"
         id="path979" />
      <path
         style="color:#000000;font-style:normal;font-variant:normal;font-weight:normal;font-stretch:normal;font-size:medium;line-height:1.25;font-family:HalisGR-Bold;-inkscape-font-specification:HalisGR-Bold;font-variant-ligatures:normal;font-variant-position:normal;font-variant-caps:normal;font-variant-numeric:normal;font-variant-alternates:normal;font-variant-east-asian:normal;font-feature-settings:normal;font-variation-settings:normal;text-indent:0;text-align:start;text-decoration:none;text-decoration-line:none;text-decoration-style:solid;text-decoration-color:#000000;letter-spacing:normal;word-spacing:normal;text-transform:none;writing-mode:lr-tb;direction:ltr;text-orientation:mixed;dominant-baseline:auto;baseline-shift:baseline;text-anchor:start;white-space:normal;shape-padding:0;shape-margin:0;inline-size:0;clip-rule:nonzero;display:inline;overflow:visible;visibility:visible;isolation:auto;mix-blend-mode:normal;color-interpolation:sRGB;color-interpolation-filters:linearRGB;solid-color:#000000;solid-opacity:1;vector-effect:none;fill:#000000;fill-opacity:1;fill-rule:nonzero;stroke:none;stroke-width:0;stroke-linecap:round;stroke-linejoin:miter;stroke-miterlimit:4;stroke-dasharray:none;stroke-dashoffset:0;stroke-opacity:1;color-rendering:auto;image-rendering:auto;shape-rendering:auto;text-rendering:auto;enable-background:accumulate;stop-color:#000000;stop-opacity:1"
         d="m 256.54102,87.203125 c -1.8153,0 -3.40506,0.334049 -4.76758,1.001953 -1.36134,0.640912 -2.4035,1.495562 -3.125,2.564453 -0.72079,1.067832 -1.2544,2.163538 -1.60156,3.285157 -0.34713,1.121473 -0.52149,2.256017 -0.52149,3.404296 0,1.174909 0.17438,2.336261 0.52149,3.484376 0.34716,1.12162 0.88077,2.21732 1.60156,3.28516 0.72177,1.04256 1.76305,1.89683 3.125,2.56445 h 0.002 c 1.36248,0.64117 2.95041,0.96289 4.76563,0.96289 2.64414,0 5.19489,-1.02884 7.65039,-3.08398 l 0.0117,-0.01 -2.6582,-3.66602 -0.0137,0.01 c -1.57105,1.19825 -3.23387,1.79687 -4.99023,1.79687 -1.22308,0 -2.21784,-0.41079 -2.98829,-1.23437 -0.7672,-0.84657 -1.22872,-1.890545 -1.39062,-3.132813 h 12.51367 l 0.002,-0.01563 c 0.10669,-1.173562 0.16016,-2.040547 0.16016,-2.601563 0,-2.642963 -0.73528,-4.74105 -2.20508,-6.291015 -1.44329,-1.5502 -3.4753,-2.324219 -6.09179,-2.324219 z m 0,0.03125 c 2.61017,0 4.63164,0.773273 6.06836,2.316406 1.46353,1.543369 2.19531,3.630541 2.19531,6.267578 0,0.555637 -0.0548,1.421555 -0.16016,2.583985 h -12.52148 l 0.002,0.01953 c 0.16035,1.256093 0.62871,2.312156 1.4043,3.167966 0.77621,0.82975 1.78145,1.2461 3.01172,1.2461 1.75865,0 3.42439,-0.60191 4.99609,-1.79688 l 2.62109,3.61524 c -2.44711,2.04418 -4.98605,3.06836 -7.61718,3.06836 -1.81146,0 -3.39444,-0.32015 -4.75196,-0.95899 v 0.002 c -1.35755,-0.66546 -2.39703,-1.51776 -3.11523,-2.55468 v -0.002 c -0.71869,-1.06501 -1.25166,-2.15754 -1.59766,-3.27539 -0.34623,-1.145218 -0.51953,-2.302849 -0.51953,-3.474607 0,-1.145054 0.17332,-2.276004 0.51953,-3.394531 0.34617,-1.118382 0.87844,-2.211842 1.59766,-3.277344 0.71821,-1.064024 1.75735,-1.913729 3.11523,-2.552734 1.35748,-0.66543 2.94058,-1 4.75196,-1 z m 0,4.808594 c -1.0693,0 -1.96017,0.263997 -2.66993,0.792969 -0.70976,0.528971 -1.23655,1.323258 -1.58398,2.378906 l -0.008,0.01953 h 7.19922 l -0.002,-0.01563 c -0.0267,-1.042424 -0.2833,-1.830913 -0.77344,-2.361328 -0.49013,-0.530415 -1.21251,-0.801079 -2.1621,-0.814453 z m 0,0.03125 c 0.94373,0.01329 1.65546,0.283722 2.13867,0.80664 0.47993,0.519375 0.73025,1.295202 0.75976,2.322266 h -7.10937 c 0.34598,-1.0369 0.86328,-1.822137 1.56054,-2.341797 0.70358,-0.524362 1.58636,-0.787109 2.6504,-0.787109 z"
         id="path981" />
    </g>
    <g
       id="g983"
       style="font-size:40px;line-height:1.25;font-family:HalisGR-Bold;-inkscape-font-specification:HalisGR-Bold;fill:#808000;stroke:#000000;stroke-width:0.505774;stroke-linecap:round;stroke-opacity:1"
       transform="matrix(0.52312436,0,0,0.52312436,-98.79649,-78.059212)">
      <path
         style="color:#000000;font-style:normal;font-variant:normal;font-weight:normal;font-stretch:normal;font-size:medium;line-height:1.25;font-family:HalisGR-Bold;-inkscape-font-specification:HalisGR-Bold;font-variant-ligatures:normal;font-variant-position:normal;font-variant-caps:normal;font-variant-numeric:normal;font-variant-alternates:normal;font-variant-east-asian:normal;font-feature-settings:normal;font-variation-settings:normal;text-indent:0;text-align:start;text-decoration:none;text-decoration-line:none;text-decoration-style:solid;text-decoration-color:#000000;letter-spacing:normal;word-spacing:normal;text-transform:none;writing-mode:lr-tb;direction:ltr;text-orientation:mixed;dominant-baseline:auto;baseline-shift:baseline;text-anchor:start;white-space:normal;shape-padding:0;shape-margin:0;inline-size:0;clip-rule:nonzero;display:inline;overflow:visible;visibility:visible;isolation:auto;mix-blend-mode:normal;color-interpolation:sRGB;color-interpolation-filters:linearRGB;solid-color:#000000;solid-opacity:1;vector-effect:none;fill:#97aacb;fill-opacity:1;fill-rule:nonzero;stroke:none;stroke-width:0;stroke-linecap:round;stroke-linejoin:miter;stroke-miterlimit:4;stroke-dasharray:none;stroke-dashoffset:0;stroke-opacity:1;color-rendering:auto;image-rendering:auto;shape-rendering:auto;text-rendering:auto;enable-background:accumulate;stop-color:#000000;stop-opacity:1"
         d="m 303.22128,87.859039 c 0,1.066667 -0.33333,2.146667 -1,3.24 -0.64,1.093333 -1.45333,1.88 -2.44,2.36 0.98667,0.506667 1.8,1.28 2.44,2.32 0.66667,1.013333 1,2.146667 1,3.4 0,1.013331 -0.17333,1.986671 -0.52,2.920001 -0.32,0.90667 -0.85333,1.78667 -1.6,2.64 -0.72,0.82667 -1.76,1.49333 -3.12,2 -1.33333,0.50667 -2.92,0.76 -4.76,0.76 h -10.6 V 79.499039 h 10.6 c 1.84,0 3.42667,0.253333 4.76,0.76 1.36,0.506667 2.4,1.186667 3.12,2.04 0.74667,0.853333 1.28,1.746667 1.6,2.68 0.34667,0.906667 0.52,1.866667 0.52,2.88 z m -9.48,3.28 c 0.98667,-0.02667 1.77333,-0.253333 2.36,-0.68 0.61333,-0.453333 0.98667,-0.893333 1.12,-1.32 0.16,-0.426667 0.24,-0.853333 0.24,-1.28 0,-0.373333 -0.08,-0.773333 -0.24,-1.2 -0.13333,-0.426667 -0.52,-0.866667 -1.16,-1.32 -0.61333,-0.453333 -1.42667,-0.68 -2.44,-0.68 h -5.4 v 6.48 z m -0.12,11.160001 c 1.01333,0 1.82667,-0.21333 2.44,-0.64 0.64,-0.45333 1.02667,-0.88 1.16,-1.28 0.16,-0.426667 0.24,-0.826668 0.24,-1.200001 0,-0.453333 -0.08,-0.866667 -0.24,-1.24 -0.13333,-0.4 -0.50667,-0.786667 -1.12,-1.16 -0.58667,-0.373333 -1.37333,-0.573333 -2.36,-0.6 h -5.52 v 6.120001 z"
         id="path985" />
      <path
         style="color:#000000;font-style:normal;font-variant:normal;font-weight:normal;font-stretch:normal;font-size:medium;line-height:1.25;font-family:HalisGR-Bold;-inkscape-font-specification:HalisGR-Bold;font-variant-ligatures:normal;font-variant-position:normal;font-variant-caps:normal;font-variant-numeric:normal;font-variant-alternates:normal;font-variant-east-asian:normal;font-feature-settings:normal;font-variation-settings:normal;text-indent:0;text-align:start;text-decoration:none;text-decoration-line:none;text-decoration-style:solid;text-decoration-color:#000000;letter-spacing:normal;word-spacing:normal;text-transform:none;writing-mode:lr-tb;direction:ltr;text-orientation:mixed;dominant-baseline:auto;baseline-shift:baseline;text-anchor:start;white-space:normal;shape-padding:0;shape-margin:0;inline-size:0;clip-rule:nonzero;display:inline;overflow:visible;visibility:visible;isolation:auto;mix-blend-mode:normal;color-interpolation:sRGB;color-interpolation-filters:linearRGB;solid-color:#000000;solid-opacity:1;vector-effect:none;fill:#000000;fill-opacity:1;fill-rule:nonzero;stroke:none;stroke-width:0;stroke-linecap:round;stroke-linejoin:miter;stroke-miterlimit:4;stroke-dasharray:none;stroke-dashoffset:0;stroke-opacity:1;color-rendering:auto;image-rendering:auto;shape-rendering:auto;text-rendering:auto;enable-background:accumulate;stop-color:#000000;stop-opacity:1"
         d="m 282.60547,79.482422 v 28.033198 h 10.61523 c 1.84147,0 3.43001,-0.25418 4.76563,-0.76171 1.3618,-0.50734 2.40474,-1.1747 3.12695,-2.00391 0.74737,-0.85413 1.28268,-1.73619 1.60352,-2.64453 v -0.002 c 0.34687,-0.93456 0.51953,-1.90933 0.51953,-2.923832 0,-1.255547 -0.33429,-2.392725 -1.00195,-3.408204 -0.63712,-1.035316 -1.44905,-1.802335 -2.42969,-2.310546 0.98186,-0.482265 1.79217,-1.264434 2.42969,-2.353516 0.66787,-1.095308 1.00195,-2.178047 1.00195,-3.248047 0,-1.014493 -0.17261,-1.976767 -0.51953,-2.884766 v -0.002 c -0.32081,-0.934985 -0.8561,-1.829395 -1.60352,-2.683594 -0.72219,-0.855935 -1.76506,-1.537551 -3.12695,-2.044921 -1.33562,-0.507535 -2.92416,-0.761719 -4.76563,-0.761719 z m 0.0312,0.0332 h 10.58398 c 1.83853,0 3.42481,0.252014 4.75586,0.757813 1.35811,0.505963 2.39548,1.184424 3.11328,2.035156 v 0.002 c 0.74551,0.85201 1.27646,1.742691 1.59571,2.673828 0.34595,0.904809 0.51953,1.863491 0.51953,2.875 0,1.063333 -0.33259,2.13911 -0.99805,3.230469 v 0.002 c -0.6387,1.091121 -1.45,1.875011 -2.43359,2.353515 l -0.0274,0.01367 0.0274,0.01367 c 0.98396,0.505277 1.79491,1.276591 2.43359,2.314453 0.665,1.010803 0.99805,2.142082 0.99805,3.392579 0,1.011515 -0.17352,1.982505 -0.51953,2.914065 -0.31923,0.90447 -0.85014,1.78269 -1.59571,2.63477 -0.71778,0.82412 -1.75508,1.49009 -3.11328,1.99609 -1.33105,0.5058 -2.91733,0.75781 -4.75586,0.75781 h -10.58398 z m 5.56836,5.126953 v 6.511719 h 5.53711 c 0.98888,-0.02673 1.77915,-0.252558 2.36914,-0.681641 0.61482,-0.45443 0.99006,-0.896331 1.125,-1.328125 0.16061,-0.428308 0.24023,-0.856489 0.24023,-1.285156 0,-0.375619 -0.0797,-0.776975 -0.24023,-1.205078 -0.13503,-0.432083 -0.52451,-0.873726 -1.16602,-1.328125 -0.61672,-0.455837 -1.4335,-0.683594 -2.44922,-0.683594 z m 0.0312,0.0332 h 5.38476 c 1.01095,0 1.8217,0.224952 2.43164,0.675781 0.6385,0.452268 1.02071,0.89125 1.15235,1.3125 h 0.002 c 0.15946,0.425231 0.23828,0.824265 0.23828,1.195313 0,0.424667 -0.0789,0.848413 -0.23828,1.273437 v 0.002 h -0.002 c -0.13173,0.421539 -0.50143,0.85831 -1.11328,1.310546 -0.5829,0.423926 -1.36623,0.650843 -2.34961,0.677735 h -5.50586 z m -0.0312,11.486328 v 6.152337 h 5.41601 c 1.01558,0 1.8325,-0.21355 2.44922,-0.64257 0.64139,-0.45432 1.03083,-0.88155 1.16602,-1.28711 0.16054,-0.428104 0.24023,-0.829459 0.24023,-1.205078 0,-0.455216 -0.0793,-0.870606 -0.24023,-1.246094 -0.13519,-0.405566 -0.51189,-0.793584 -1.12695,-1.167969 -0.58995,-0.375422 -1.3786,-0.576797 -2.36719,-0.603516 z m 0.0312,0.0332 h 5.5039 c 0.98474,0.02661 1.76818,0.226412 2.35157,0.597657 h 0.002 c 0.61161,0.372281 0.9818,0.755956 1.11328,1.15039 v 0.002 c 0.15908,0.371179 0.23828,0.782925 0.23828,1.234376 0,0.371047 -0.0788,0.768128 -0.23828,1.193364 -0.13148,0.39443 -0.51568,0.82108 -1.1543,1.27343 -0.60994,0.42431 -1.42055,0.63672 -2.43164,0.63672 h -5.38476 z"
         id="path987" />
    </g>
    <g
       id="g989"
       style="font-size:40px;line-height:1.25;font-family:HalisGR-Bold;-inkscape-font-specification:HalisGR-Bold;fill:#808000;stroke:#000000;stroke-width:0.505774;stroke-linecap:round;stroke-opacity:1"
       transform="matrix(0.52312436,0,0,0.52312436,-100.82881,-78.059212)">
      <path
         style="color:#000000;font-style:normal;font-variant:normal;font-weight:normal;font-stretch:normal;font-size:medium;line-height:1.25;font-family:HalisGR-Bold;-inkscape-font-specification:HalisGR-Bold;font-variant-ligatures:normal;font-variant-position:normal;font-variant-caps:normal;font-variant-numeric:normal;font-variant-alternates:normal;font-variant-east-asian:normal;font-feature-settings:normal;font-variation-settings:normal;text-indent:0;text-align:start;text-decoration:none;text-decoration-line:none;text-decoration-style:solid;text-decoration-color:#000000;letter-spacing:normal;word-spacing:normal;text-transform:none;writing-mode:lr-tb;direction:ltr;text-orientation:mixed;dominant-baseline:auto;baseline-shift:baseline;text-anchor:start;white-space:normal;shape-padding:0;shape-margin:0;inline-size:0;clip-rule:nonzero;display:inline;overflow:visible;visibility:visible;isolation:auto;mix-blend-mode:normal;color-interpolation:sRGB;color-interpolation-filters:linearRGB;solid-color:#000000;solid-opacity:1;vector-effect:none;fill:#97aacb;fill-opacity:1;fill-rule:nonzero;stroke:none;stroke-width:0;stroke-linecap:round;stroke-linejoin:miter;stroke-miterlimit:4;stroke-dasharray:none;stroke-dashoffset:0;stroke-opacity:1;color-rendering:auto;image-rendering:auto;shape-rendering:auto;text-rendering:auto;enable-background:accumulate;stop-color:#000000;stop-opacity:1"
         d="m 315.30125,97.779039 v 9.720001 h -5.68 V 79.499039 h 10.68 c 1.81333,0 3.4,0.293333 4.76,0.88 1.38667,0.586667 2.44,1.36 3.16,2.32 0.72,0.933333 1.24,1.893333 1.56,2.88 0.34667,0.986667 0.52,1.986667 0.52,3 0,2.64 -0.97333,4.84 -2.92,6.6 -1.92,1.733333 -4.10667,2.6 -6.56,2.6 z m 5.36,-5.24 c 1.41333,-0.02667 2.42667,-0.466667 3.04,-1.32 0.61333,-0.88 0.92,-1.76 0.92,-2.64 0,-0.933333 -0.32,-1.813333 -0.96,-2.64 -0.61333,-0.853333 -1.66667,-1.28 -3.16,-1.28 h -5.2 v 7.88 z"
         id="path991" />
      <path
         style="color:#000000;font-style:normal;font-variant:normal;font-weight:normal;font-stretch:normal;font-size:medium;line-height:1.25;font-family:HalisGR-Bold;-inkscape-font-specification:HalisGR-Bold;font-variant-ligatures:normal;font-variant-position:normal;font-variant-caps:normal;font-variant-numeric:normal;font-variant-alternates:normal;font-variant-east-asian:normal;font-feature-settings:normal;font-variation-settings:normal;text-indent:0;text-align:start;text-decoration:none;text-decoration-line:none;text-decoration-style:solid;text-decoration-color:#000000;letter-spacing:normal;word-spacing:normal;text-transform:none;writing-mode:lr-tb;direction:ltr;text-orientation:mixed;dominant-baseline:auto;baseline-shift:baseline;text-anchor:start;white-space:normal;shape-padding:0;shape-margin:0;inline-size:0;clip-rule:nonzero;display:inline;overflow:visible;visibility:visible;isolation:auto;mix-blend-mode:normal;color-interpolation:sRGB;color-interpolation-filters:linearRGB;solid-color:#000000;solid-opacity:1;vector-effect:none;fill:#000000;fill-opacity:1;fill-rule:nonzero;stroke:none;stroke-width:0;stroke-linecap:round;stroke-linejoin:miter;stroke-miterlimit:4;stroke-dasharray:none;stroke-dashoffset:0;stroke-opacity:1;color-rendering:auto;image-rendering:auto;shape-rendering:auto;text-rendering:auto;enable-background:accumulate;stop-color:#000000;stop-opacity:1"
         d="m 309.60547,79.482422 v 28.033198 h 5.71094 v -9.720698 h 5.5039 c 2.4571,0 4.64975,-0.867911 6.57227,-2.603516 1.94962,-1.762669 2.92383,-3.969348 2.92383,-6.613281 0,-1.015158 -0.1723,-2.015623 -0.51953,-3.003906 -0.32063,-0.988608 -0.84154,-1.950181 -1.5625,-2.884766 -0.72202,-0.962693 -1.77738,-1.736719 -3.16602,-2.324219 -1.36238,-0.587691 -2.95252,-0.882812 -4.76758,-0.882812 z m 0.0312,0.0332 h 10.66406 c 1.81161,0 3.39628,0.293264 4.75391,0.878906 1.3847,0.585834 2.43631,1.357146 3.15429,2.314453 0.71904,0.932082 1.23727,1.890275 1.55664,2.875 0.3461,0.985051 0.51954,1.982632 0.51954,2.994141 0,2.636067 -0.97035,4.832513 -2.91407,6.589844 -1.91748,1.731062 -4.10121,2.595703 -6.55078,2.595703 h -5.53515 v 0.01563 9.703121 h -5.64844 z m 5.64844,5.126953 v 7.91211 h 5.37695 c 1.41651,-0.02673 2.43605,-0.468174 3.05273,-1.326172 0.61477,-0.882053 0.92188,-1.766674 0.92188,-2.650391 0,-0.93699 -0.32111,-1.819466 -0.96289,-2.648437 -0.61693,-0.858331 -1.6755,-1.28711 -3.17188,-1.28711 z m 0.0312,0.0332 h 5.18554 c 1.49029,0 2.53675,0.425102 3.14649,1.273438 0.63821,0.824362 0.95703,1.69923 0.95703,2.628906 0,0.876283 -0.30607,1.752912 -0.91797,2.630859 -0.60966,0.848228 -1.61638,1.287434 -3.02539,1.314454 h -5.3457 z"
         id="path993" />
    </g>
  </g>
</svg>
